Hubli-Regulartt.ufo
<glyph name="knEE" format="1">
  <advance width="700"/>
  <unicode hex="0C8F"/>
  <outline>
    <contour>
      <point x="162" y="500" type="move"/>
      <point x="162" y="409"/>
      <point x="210" y="350"/>
      <point x="269" y="350" type="curve" smooth="yes"/>
      <point x="320" y="350"/>
      <point x="353" y="398"/>
      <point x="358" y="451" type="curve"/>
    </contour>
    <contour>
      <point x="168" y="220" type="move"/>
      <point x="106" y="211"/>
      <point x="72" y="170"/>
      <point x="72" y="122" type="curve" smooth="yes"/>
      <point x="72" y="69"/>
      <point x="115" y="27"/>
      <point x="183" y="27" type="curve" smooth="yes"/>
      <point x="259" y="27"/>
      <point x="303" y="59"/>
      <point x="340" y="128" type="curve"/>
      <point x="345" y="128" type="line"/>
      <point x="386" y="57"/>
      <point x="427" y="27"/>
      <point x="490" y="27" type="curve"/>
      <point x="561" y="27"/>
      <point x="622" y="78"/>
      <point x="621" y="172" type="curve" smooth="yes"/>
      <point x="620" y="292"/>
      <point x="542" y="414"/>
      <point x="360" y="455" type="curve"/>
    </contour>
  </outline>
</glyph>
<glyph name="knAU" format="1">
  <advance width="716"/>
  <unicode hex="0C94"/>
  <outline>
    <contour>
      <point x="123" y="634" type="move"/>
      <point x="437" y="634" type="line" smooth="yes"/>
      <point x="583" y="634"/>
      <point x="648" y="570"/>
      <point x="648" y="480" type="curve"/>
      <point x="648" y="397"/>
      <point x="604" y="348"/>
      <point x="546" y="348" type="curve" smooth="yes"/>
      <point x="491" y="348"/>
      <point x="460" y="385"/>
      <point x="459" y="426" type="curve" smooth="yes"/>
      <point x="458" y="475"/>
      <point x="496" y="521"/>
      <point x="565" y="521" type="curve" smooth="yes"/>
      <point x="592" y="521"/>
      <point x="620" y="518"/>
      <point x="643" y="510" type="curve"/>
    </contour>
    <contour>
      <point x="124" y="466" type="move"/>
      <point x="169" y="466" type="line" smooth="yes"/>
      <point x="268" y="466"/>
      <point x="320" y="510"/>
      <point x="349" y="629" type="curve"/>
    </contour>
    <component base="knO"/>
  </outline>
</glyph>
<glyph name="knGA" format="1">
  <advance width="611"/>
  <unicode hex="0C97"/>
  <outline>
    <contour>
      <point x="63" y="437" type="move"/>
      <point x="424" y="437" type="line" smooth="yes"/>
      <point x="497" y="437"/>
      <point x="540" y="463"/>
      <point x="572" y="515" type="curve"/>
    </contour>
    <contour>
      <point x="476" y="27" type="move"/>
      <point x="498" y="73"/>
      <point x="511" y="118"/>
      <point x="511" y="180" type="curve" smooth="yes"/>
      <point x="511" y="273"/>
      <point x="447" y="379"/>
      <point x="322" y="437" type="curve"/>
    </contour>
    <contour>
      <point x="284" y="437" type="move"/>
      <point x="161" y="380"/>
      <point x="102" y="274"/>
      <point x="102" y="180" type="curve" smooth="yes"/>
      <point x="102" y="119"/>
      <point x="114" y="71"/>
      <point x="137" y="27" type="curve"/>
    </contour>
  </outline>
</glyph>
<glyph name="knCHA" format="1">
  <advance width="734"/>
  <unicode hex="0C9B"/>
  <outline>
    <contour>
      <point x="438" y="437" type="move"/>
      <point x="537" y="437" type="line" smooth="yes"/>
      <point x="610" y="437"/>
      <point x="653" y="463"/>
      <point x="685" y="515" type="curve"/>
    </contour>
    <contour>
      <point x="377" y="-89" type="move"/>
      <point x="377" y="-192" type="line"/>
    </contour>
    <contour>
      <point x="111" y="354" type="move"/>
      <point x="139" y="312"/>
      <point x="173" y="286"/>
      <point x="215" y="286" type="curve" smooth="yes"/>
      <point x="263" y="286"/>
      <point x="303" y="318"/>
      <point x="303" y="368" type="curve" smooth="yes"/>
      <point x="303" y="417"/>
      <point x="270" y="452"/>
      <point x="215" y="452" type="curve" smooth="yes"/>
      <point x="146" y="452"/>
      <point x="85" y="352"/>
      <point x="85" y="229" type="curve" smooth="yes"/>
      <point x="85" y="113"/>
      <point x="147" y="27"/>
      <point x="232" y="27" type="curve" smooth="yes"/>
      <point x="297" y="27"/>
      <point x="337" y="59"/>
      <point x="374" y="128" type="curve"/>
      <point x="379" y="128" type="line"/>
      <point x="417" y="61"/>
      <point x="461" y="27"/>
      <point x="521" y="27" type="curve" smooth="yes"/>
      <point x="598" y="27"/>
      <point x="650" y="90"/>
      <point x="650" y="183" type="curve" smooth="yes"/>
      <point x="650" y="279"/>
      <point x="609" y="364"/>
      <point x="508" y="437" type="curve"/>
    </contour>
  </outline>
</glyph>
<glyph name="knJA" format="1">
  <advance width="716"/>
  <unicode hex="0C9C"/>
  <outline>
    <contour>
      <point x="528" y="437" type="move"/>
      <point x="536" y="423"/>
      <point x="543" y="404"/>
      <point x="543" y="381" type="curve" smooth="yes"/>
      <point x="543" y="331"/>
      <point x="507" y="297"/>
      <point x="448" y="297" type="curve" smooth="yes"/>
      <point x="389" y="297"/>
      <point x="314" y="331"/>
      <point x="245" y="415" type="curve"/>
    </contour>
    <component base="knO"/>
  </outline>
</glyph>
<glyph name="knNNA" format="1">
  <advance width="760"/>
  <unicode hex="0CA3"/>
  <outline>
    <contour>
      <point x="228" y="229" type="move"/>
      <point x="165" y="231"/>
      <point x="101" y="191"/>
      <point x="101" y="128" type="curve" smooth="yes"/>
      <point x="101" y="66"/>
      <point x="148" y="28"/>
      <point x="225" y="28" type="curve" smooth="yes"/>
      <point x="254" y="28"/>
      <point x="276" y="32"/>
      <point x="294" y="37" type="curve"/>
    </contour>
    <contour>
      <point x="650" y="148" type="move"/>
      <point x="622" y="179"/>
      <point x="589" y="204"/>
      <point x="539" y="204" type="curve" smooth="yes"/>
      <point x="477" y="204"/>
      <point x="442" y="159"/>
      <point x="442" y="112" type="curve" smooth="yes"/>
      <point x="442" y="60"/>
      <point x="483" y="23"/>
      <point x="534" y="23" type="curve" smooth="yes"/>
      <point x="611" y="23"/>
      <point x="662" y="87"/>
      <point x="661" y="230" type="curve" smooth="yes"/>
      <point x="660" y="379"/>
      <point x="600" y="447"/>
      <point x="522" y="447" type="curve" smooth="yes"/>
      <point x="460" y="447"/>
      <point x="413" y="402"/>
      <point x="378" y="334" type="curve"/>
      <point x="374" y="334" type="line"/>
      <point x="342" y="402"/>
      <point x="294" y="445"/>
      <point x="225" y="445" type="curve" smooth="yes"/>
      <point x="154" y="445"/>
      <point x="113" y="395"/>
      <point x="113" y="340" type="curve" smooth="yes"/>
      <point x="113" y="281"/>
      <point x="162" y="229"/>
      <point x="241" y="229" type="curve" smooth="yes"/>
      <point x="245" y="229"/>
      <point x="247" y="229"/>
      <point x="251" y="229" type="curve"/>
    </contour>
  </outline>
</glyph>
<glyph name="knDA" format="1">
  <advance width="721"/>
  <unicode hex="0CA6"/>
  <outline>
    <contour>
      <point x="96" y="437" type="move"/>
      <point x="499" y="437" type="line" smooth="yes"/>
      <point x="572" y="437"/>
      <point x="615" y="463"/>
      <point x="647" y="515" type="curve"/>
    </contour>
    <contour>
      <point x="303" y="437" type="move"/>
      <point x="179" y="382"/>
      <point x="91" y="274"/>
      <point x="91" y="172" type="curve" smooth="yes"/>
      <point x="91" y="80"/>
      <point x="143" y="27"/>
      <point x="216" y="27" type="curve" smooth="yes"/>
      <point x="281" y="27"/>
      <point x="320" y="61"/>
      <point x="355" y="128" type="curve"/>
      <point x="360" y="128" type="line"/>
      <point x="398" y="58"/>
      <point x="435" y="27"/>
      <point x="504" y="27" type="curve" smooth="yes"/>
      <point x="576" y="27"/>
      <point x="630" y="80"/>
      <point x="630" y="172" type="curve" smooth="yes"/>
      <point x="630" y="273"/>
      <point x="538" y="381"/>
      <point x="411" y="437" type="curve"/>
    </contour>
  </outline>
</glyph>
<glyph name="knYA" format="1">
  <advance width="1210"/>
  <unicode hex="0CAF"/>
  <outline>
    <contour>
      <point x="178" y="437"/>
      <point x="85" y="332"/>
      <point x="85" y="227" type="curve" smooth="yes"/>
      <point x="85" y="110"/>
      <point x="165" y="23"/>
      <point x="296" y="23" type="curve" smooth="yes"/>
      <point x="425" y="23"/>
      <point x="507" y="112"/>
      <point x="507" y="227" type="curve" smooth="yes"/>
      <point x="507" y="330"/>
      <point x="416" y="437"/>
      <point x="296" y="437" type="curve" smooth="yes"/>
    </contour>
    <contour>
      <point x="594" y="437" type="move"/>
      <point x="696" y="437" type="line" smooth="yes"/>
      <point x="769" y="437"/>
      <point x="812" y="463"/>
      <point x="844" y="515" type="curve"/>
    </contour>
    <component base="knmU" xOffset="598"/>
    <component base="knmU" xOffset="909"/>
  </outline>
</glyph>
<glyph name="knLA" format="1">
  <advance width="705"/>
  <unicode hex="0CB2"/>
  <outline>
    <contour>
      <point x="103" y="346" type="move"/>
      <point x="135" y="304"/>
      <point x="174" y="280"/>
      <point x="216" y="280" type="curve" smooth="yes"/>
      <point x="267" y="280"/>
      <point x="306" y="313"/>
      <point x="306" y="363" type="curve" smooth="yes"/>
      <point x="306" y="412"/>
      <point x="272" y="452"/>
      <point x="214" y="452" type="curve" smooth="yes"/>
      <point x="142" y="452"/>
      <point x="85" y="356"/>
      <point x="85" y="253" type="curve" smooth="yes"/>
      <point x="85" y="130"/>
      <point x="181" y="27"/>
      <point x="361" y="27" type="curve" smooth="yes"/>
      <point x="549" y="27"/>
      <point x="619" y="141"/>
      <point x="619" y="249" type="curve" smooth="yes"/>
      <point x="619" y="335"/>
      <point x="568" y="405"/>
      <point x="500" y="437" type="curve"/>
    </contour>
  </outline>
</glyph>
<glyph name="knVA" format="1">
  <advance width="703"/>
  <unicode hex="0CB5"/>
  <outline>
    <contour>
      <point x="118" y="437" type="move"/>
      <point x="483" y="437" type="line" smooth="yes"/>
      <point x="556" y="437"/>
      <point x="599" y="463"/>
      <point x="631" y="515" type="curve"/>
    </contour>
    <contour>
      <point x="181" y="220" type="move"/>
      <point x="119" y="211"/>
      <point x="85" y="170"/>
      <point x="85" y="122" type="curve" smooth="yes"/>
      <point x="85" y="69"/>
      <point x="128" y="27"/>
      <point x="196" y="27" type="curve" smooth="yes"/>
      <point x="272" y="27"/>
      <point x="316" y="59"/>
      <point x="353" y="128" type="curve"/>
      <point x="358" y="128" type="line"/>
      <point x="400" y="63"/>
      <point x="440" y="27"/>
      <point x="508" y="27" type="curve" smooth="yes"/>
      <point x="574" y="27"/>
      <point x="634" y="78"/>
      <point x="634" y="158" type="curve" smooth="yes"/>
      <point x="634" y="256"/>
      <point x="565" y="362"/>
      <point x="399" y="434" type="curve"/>
    </contour>
  </outline>
</glyph>
<glyph name="knHA" format="1">
  <advance width="734"/>
  <unicode hex="0CB9"/>
  <outline>
    <contour>
      <point x="358" y="154" type="curve" smooth="yes"/>
      <point x="358" y="222"/>
      <point x="302" y="284"/>
      <point x="211" y="284" type="curve" smooth="yes"/>
      <point x="127" y="284"/>
      <point x="73" y="222"/>
      <point x="73" y="154" type="curve" smooth="yes"/>
      <point x="73" y="84"/>
      <point x="126" y="23"/>
      <point x="211" y="23" type="curve" smooth="yes"/>
      <point x="300" y="23"/>
      <point x="358" y="84"/>
    </contour>
    <contour>
      <point x="669" y="154" type="curve" smooth="yes"/>
      <point x="669" y="222"/>
      <point x="617" y="284"/>
      <point x="529" y="284" type="curve" smooth="yes"/>
      <point x="443" y="284"/>
      <point x="384" y="222"/>
      <point x="384" y="154" type="curve" smooth="yes"/>
      <point x="384" y="84"/>
      <point x="444" y="23"/>
      <point x="529" y="23" type="curve" smooth="yes"/>
      <point x="618" y="23"/>
      <point x="669" y="84"/>
    </contour>
    <contour>
      <point x="90" y="437" type="move"/>
      <point x="531" y="437" type="line" smooth="yes"/>
      <point x="604" y="437"/>
      <point x="647" y="463"/>
      <point x="679" y="515" type="curve"/>
    </contour>
    <contour>
      <point x="371" y="248" type="move"/>
      <point x="371" y="409" type="line" smooth="yes"/>
    </contour>
  </outline>
</glyph>
<glyph name="knNukta" format="1">
  <advance width="481"/>
  <unicode hex="0CBC"/>
  <outline>
    <contour>
      <point x="401" y="-203"/>
      <point x="434" y="-170"/>
      <point x="434" y="-126" type="curve" smooth="yes"/>
      <point x="434" y="-82"/>
      <point x="401" y="-49"/>
      <point x="357" y="-49" type="curve" smooth="yes"/>
      <point x="313" y="-49"/>
      <point x="280" y="-82"/>
      <point x="280" y="-126" type="curve" smooth="yes"/>
      <point x="280" y="-170"/>
      <point x="313" y="-203"/>
      <point x="357" y="-203" type="curve" smooth="yes"/>
    </contour>
    <contour>
      <point x="170" y="-203"/>
      <point x="203" y="-170"/>
      <point x="203" y="-126" type="curve" smooth="yes"/>
      <point x="203" y="-82"/>
      <point x="170" y="-49"/>
      <point x="126" y="-49" type="curve" smooth="yes"/>
      <point x="82" y="-49"/>
      <point x="49" y="-82"/>
      <point x="49" y="-126" type="curve" smooth="yes"/>
      <point x="49" y="-170"/>
      <point x="82" y="-203"/>
      <point x="126" y="-203" type="curve" smooth="yes"/>
    </contour>
  </outline>
</glyph>
<glyph name="knmUU" format="1">
  <advance width="592"/>
  <unicode hex="0CC2"/>
  <outline>
    <contour>
      <point x="-93" y="170" type="move"/>
      <point x="-39" y="57"/>
      <point x="17" y="27"/>
      <point x="72" y="27" type="curve" smooth="yes"/>
      <point x="131" y="27"/>
      <point x="164" y="68"/>
      <point x="164" y="129" type="curve" smooth="yes"/>
      <point x="164" y="182"/>
      <point x="139" y="232"/>
      <point x="139" y="292" type="curve" smooth="yes"/>
      <point x="139" y="359"/>
      <point x="187" y="437"/>
      <point x="281" y="437" type="curve" smooth="yes"/>
      <point x="382" y="437"/>
      <point x="507" y="341"/>
      <point x="507" y="171" type="curve" smooth="yes"/>
      <point x="507" y="78"/>
      <point x="460" y="23"/>
      <point x="397" y="23" type="curve" smooth="yes"/>
      <point x="338" y="23"/>
      <point x="305" y="65"/>
      <point x="304" y="111" type="curve" smooth="yes"/>
      <point x="303" y="165"/>
      <point x="344" y="217"/>
      <point x="418" y="217" type="curve" smooth="yes"/>
      <point x="447" y="217"/>
      <point x="477" y="213"/>
      <point x="502" y="205" type="curve"/>
    </contour>
  </outline>
</glyph>
<glyph name="knmE" format="1">
  <advance width="0"/>
  <unicode hex="0CC6"/>
  <outline>
    <contour>
      <point x="-328" y="437" type="move"/>
      <point x="-207" y="437" type="line" smooth="yes"/>
      <point x="-104" y="437"/>
      <point x="-59" y="486"/>
      <point x="-59" y="535" type="curve" smooth="yes"/>
      <point x="-59" y="581"/>
      <point x="-94" y="619"/>
      <point x="-149" y="619" type="curve" smooth="yes"/>
      <point x="-207" y="619"/>
      <point x="-251" y="568"/>
      <point x="-251" y="495" type="curve" smooth="yes"/>
      <point x="-251" y="484"/>
      <point x="-250" y="470"/>
      <point x="-248" y="455" type="curve"/>
    </contour>
  </outline>
</glyph>
<glyph name="knLLLA" format="1">
  <advance width="753"/>
  <unicode hex="0CDE"/>
  <outline>
    <contour>
      <point x="111" y="354" type="move"/>
      <point x="139" y="312"/>
      <point x="173" y="286"/>
      <point x="215" y="286" type="curve" smooth="yes"/>
      <point x="263" y="286"/>
      <point x="303" y="318"/>
      <point x="303" y="368" type="curve" smooth="yes"/>
      <point x="303" y="417"/>
      <point x="270" y="452"/>
      <point x="215" y="452" type="curve" smooth="yes"/>
      <point x="146" y="452"/>
      <point x="85" y="352"/>
      <point x="85" y="229" type="curve" smooth="yes"/>
      <point x="85" y="113"/>
      <point x="147" y="27"/>
      <point x="232" y="27" type="curve" smooth="yes"/>
      <point x="297" y="27"/>
      <point x="337" y="59"/>
      <point x="374" y="128" type="curve"/>
      <point x="379" y="128" type="line"/>
      <point x="416" y="59"/>
      <point x="456" y="27"/>
      <point x="521" y="27" type="curve" smooth="yes"/>
      <point x="606" y="27"/>
      <point x="668" y="113"/>
      <point x="668" y="229" type="curve" smooth="yes"/>
      <point x="668" y="352"/>
      <point x="607" y="452"/>
      <point x="538" y="452" type="curve" smooth="yes"/>
      <point x="483" y="452"/>
      <point x="450" y="417"/>
      <point x="450" y="368" type="curve" smooth="yes"/>
      <point x="450" y="318"/>
      <point x="490" y="286"/>
      <point x="538" y="286" type="curve" smooth="yes"/>
      <point x="580" y="286"/>
      <point x="614" y="312"/>
      <point x="642" y="354" type="curve"/>
    </contour>
  </outline>
</glyph>
<glyph name="zerowidthjoiner" format="1">
  <advance width="0"/>
  <unicode hex="200D"/>
  <outline>
    <contour>
      <point x="-33" y="666" type="line"/>
      <point x="-33" y="-346" type="line"/>
      <point x="18" y="-346" type="line"/>
      <point x="18" y="666" type="line"/>
    </contour>
    <contour>
      <point x="133" y="570" type="line"/>
      <point x="29" y="665" type="line"/>
      <point x="133" y="761" type="line"/>
      <point x="93" y="799" type="line"/>
      <point x="-7" y="700" type="line"/>
      <point x="-108" y="799" type="line"/>
      <point x="-149" y="761" type="line"/>
      <point x="-45" y="665" type="line"/>
      <point x="-149" y="570" type="line"/>
      <point x="-107" y="531" type="line"/>
      <point x="-7" y="630" type="line"/>
      <point x="92" y="531" type="line"/>
    </contour>
  </outline>
</glyph>
<glyph name="knCAc2" format="1">
  <advance width="0"/>
  <outline>
    <contour>
      <point x="-295" y="-375"/>
      <point x="-256" y="-349"/>
      <point x="-248" y="-306" type="curve"/>
      <point x="-254" y="-305" type="line"/>
      <point x="-249" y="-349"/>
      <point x="-213" y="-375"/>
      <point x="-161" y="-375" type="curve" smooth="yes"/>
      <point x="-95" y="-375"/>
      <point x="-51" y="-338"/>
      <point x="-51" y="-281" type="curve" smooth="yes"/>
      <point x="-51" y="-227"/>
      <point x="-97" y="-193"/>
      <point x="-169" y="-193" type="curve" smooth="yes"/>
      <point x="-190" y="-193"/>
      <point x="-194" y="-194"/>
      <point x="-206" y="-197" type="curve"/>
      <point x="-206" y="-219" type="line"/>
      <point x="-158" y="-218"/>
      <point x="-133" y="-235"/>
      <point x="-133" y="-269" type="curve" smooth="yes"/>
      <point x="-133" y="-293"/>
      <point x="-146" y="-306"/>
      <point x="-167" y="-306" type="curve" smooth="yes"/>
      <point x="-194" y="-306"/>
      <point x="-210" y="-288"/>
      <point x="-210" y="-253" type="curve" smooth="yes"/>
      <point x="-210" y="-232" type="line"/>
      <point x="-293" y="-232" type="line"/>
      <point x="-293" y="-253" type="line" smooth="yes"/>
      <point x="-293" y="-288"/>
      <point x="-311" y="-306"/>
      <point x="-343" y="-306" type="curve" smooth="yes"/>
      <point x="-366" y="-306"/>
      <point x="-378" y="-296"/>
      <point x="-378" y="-280" type="curve" smooth="yes"/>
      <point x="-378" y="-234"/>
      <point x="-256" y="-219"/>
      <point x="-256" y="-136" type="curve" smooth="yes"/>
      <point x="-256" y="-83"/>
      <point x="-297" y="-46"/>
      <point x="-353" y="-46" type="curve" smooth="yes"/>
      <point x="-413" y="-46"/>
      <point x="-452" y="-81"/>
      <point x="-452" y="-134" type="curve" smooth="yes"/>
      <point x="-452" y="-144"/>
      <point x="-451" y="-152"/>
      <point x="-448" y="-162" type="curve"/>
      <point x="-372" y="-162" type="line"/>
      <point x="-374" y="-154"/>
      <point x="-375" y="-147"/>
      <point x="-375" y="-141" type="curve" smooth="yes"/>
      <point x="-375" y="-124"/>
      <point x="-366" y="-115"/>
      <point x="-353" y="-115" type="curve" smooth="yes"/>
      <point x="-341" y="-115"/>
      <point x="-333" y="-124"/>
      <point x="-333" y="-138" type="curve" smooth="yes"/>
      <point x="-333" y="-183"/>
      <point x="-460" y="-193"/>
      <point x="-460" y="-283" type="curve" smooth="yes"/>
      <point x="-460" y="-339"/>
      <point x="-416" y="-375"/>
      <point x="-351" y="-375" type="curve" smooth="yes"/>
    </contour>
    <contour>
      <point x="-35" y="-219" type="line"/>
      <point x="-35" y="-155" type="line"/>
      <point x="-206" y="-155" type="line"/>
      <point x="-206" y="-219" type="line"/>
    </contour>
    <contour>
      <point x="-89" y="-173" type="line"/>
      <point x="-89" y="-106" type="line"/>
      <point x="-160" y="-106" type="line"/>
      <point x="-160" y="-173" type="line"/>
    </contour>
    <contour>
      <point x="-122" y="-116" type="line" smooth="yes"/>
      <point x="-61" y="-116"/>
      <point x="-30" y="-94"/>
      <point x="-30" y="-50" type="curve" smooth="yes"/>
      <point x="-30" y="-38"/>
      <point x="-32" y="-25"/>
      <point x="-39" y="-13" type="curve"/>
      <point x="-113" y="-13" type="line"/>
      <point x="-109" y="-18"/>
      <point x="-106" y="-24"/>
      <point x="-106" y="-32" type="curve" smooth="yes"/>
      <point x="-106" y="-45"/>
      <point x="-116" y="-52"/>
      <point x="-137" y="-52" type="curve" smooth="yes"/>
      <point x="-206" y="-52" type="line"/>
      <point x="-206" y="-116" type="line"/>
    </contour>
  </outline>
</glyph>
<glyph name="knCHA.base" format="1">
  <advance width="744"/>
  <outline>
    <contour>
      <point x="448" y="437" type="move"/>
      <point x="547" y="437" type="line" smooth="yes"/>
    </contour>
    <contour>
      <point x="377" y="-89" type="move"/>
      <point x="377" y="-192" type="line"/>
    </contour>
    <contour>
      <point x="111" y="354" type="move"/>
      <point x="139" y="312"/>
      <point x="173" y="286"/>
      <point x="215" y="286" type="curve" smooth="yes"/>
      <point x="263" y="286"/>
      <point x="303" y="318"/>
      <point x="303" y="368" type="curve" smooth="yes"/>
      <point x="303" y="417"/>
      <point x="270" y="452"/>
      <point x="215" y="452" type="curve" smooth="yes"/>
      <point x="146" y="452"/>
      <point x="85" y="352"/>
      <point x="85" y="229" type="curve" smooth="yes"/>
      <point x="85" y="113"/>
      <point x="147" y="27"/>
      <point x="232" y="27" type="curve" smooth="yes"/>
      <point x="297" y="27"/>
      <point x="337" y="59"/>
      <point x="374" y="128" type="curve"/>
      <point x="379" y="128" type="line"/>
      <point x="417" y="61"/>
      <point x="466" y="27"/>
      <point x="525" y="27" type="curve" smooth="yes"/>
      <point x="608" y="27"/>
      <point x="660" y="90"/>
      <point x="660" y="183" type="curve" smooth="yes"/>
      <point x="660" y="279"/>
      <point x="619" y="364"/>
      <point x="518" y="437" type="curve"/>
    </contour>
  </outline>
</glyph>
<glyph name="knCI" format="1">
  <advance width="858"/>
  <outline>
    <contour>
      <point x="333" y="-10"/>
      <point x="407" y="33"/>
      <point x="420" y="114" type="curve"/>
      <point x="431" y="39"/>
      <point x="493" y="-10"/>
      <point x="588" y="-10" type="curve" smooth="yes"/>
      <point x="711" y="-10"/>
      <point x="785" y="60"/>
      <point x="785" y="159" type="curve" smooth="yes"/>
      <point x="785" y="267"/>
      <point x="685" y="316"/>
      <point x="572" y="316" type="curve" smooth="yes"/>
      <point x="538" y="316"/>
      <point x="529" y="314"/>
      <point x="510" y="310" type="curve"/>
      <point x="510" y="279" type="line"/>
      <point x="574" y="279"/>
      <point x="644" y="260"/>
      <point x="644" y="181" type="curve" smooth="yes"/>
      <point x="644" y="137"/>
      <point x="621" y="106"/>
      <point x="577" y="106" type="curve" smooth="yes"/>
      <point x="519" y="106"/>
      <point x="491" y="147"/>
      <point x="491" y="210" type="curve" smooth="yes"/>
      <point x="491" y="244" type="line"/>
      <point x="349" y="244" type="line"/>
      <point x="349" y="210" type="line" smooth="yes"/>
      <point x="349" y="144"/>
      <point x="313" y="106"/>
      <point x="250" y="106" type="curve" smooth="yes"/>
      <point x="216" y="106"/>
      <point x="181" y="120"/>
      <point x="181" y="160" type="curve" smooth="yes"/>
      <point x="181" y="250"/>
      <point x="406" y="276"/>
      <point x="406" y="427" type="curve" smooth="yes"/>
      <point x="406" y="527"/>
      <point x="329" y="587"/>
      <point x="232" y="587" type="curve" smooth="yes"/>
      <point x="115" y="587"/>
      <point x="54" y="517"/>
      <point x="54" y="430" type="curve" smooth="yes"/>
      <point x="54" y="414"/>
      <point x="56" y="401"/>
      <point x="60" y="384" type="curve"/>
      <point x="192" y="384" type="line"/>
      <point x="189" y="396"/>
      <point x="187" y="406"/>
      <point x="187" y="418" type="curve" smooth="yes"/>
      <point x="187" y="447"/>
      <point x="200" y="470"/>
      <point x="232" y="470" type="curve" smooth="yes"/>
      <point x="259" y="470"/>
      <point x="275" y="450"/>
      <point x="275" y="423" type="curve" smooth="yes"/>
      <point x="275" y="334"/>
      <point x="40" y="318"/>
      <point x="40" y="154" type="curve" smooth="yes"/>
      <point x="40" y="53"/>
      <point x="119" y="-10"/>
      <point x="236" y="-10" type="curve"/>
    </contour>
    <contour>
      <point x="814" y="279" type="line"/>
      <point x="814" y="386" type="line"/>
      <point x="510" y="386" type="line"/>
      <point x="510" y="279" type="line"/>
    </contour>
    <contour>
      <point x="714" y="364" type="line"/>
      <point x="714" y="497" type="line"/>
      <point x="595" y="497" type="line"/>
      <point x="595" y="364" type="line"/>
    </contour>
    <contour>
      <point x="631" y="469" type="line"/>
      <point x="784" y="469"/>
      <point x="828" y="584"/>
      <point x="828" y="676" type="curve" smooth="yes"/>
      <point x="828" y="778"/>
      <point x="760" y="876"/>
      <point x="631" y="876" type="curve" smooth="yes"/>
      <point x="530" y="876"/>
      <point x="469" y="815"/>
      <point x="469" y="740" type="curve" smooth="yes"/>
      <point x="469" y="662"/>
      <point x="521" y="617"/>
      <point x="604" y="617" type="curve" smooth="yes"/>
      <point x="624" y="617"/>
      <point x="648" y="621"/>
      <point x="666" y="629" type="curve"/>
      <point x="666" y="708" type="line"/>
      <point x="653" y="704"/>
      <point x="641" y="702"/>
      <point x="630" y="702" type="curve" smooth="yes"/>
      <point x="603" y="702"/>
      <point x="588" y="715"/>
      <point x="588" y="737" type="curve" smooth="yes"/>
      <point x="588" y="759"/>
      <point x="608" y="774"/>
      <point x="635" y="774" type="curve" smooth="yes"/>
      <point x="682" y="774"/>
      <point x="708" y="730"/>
      <point x="708" y="681" type="curve" smooth="yes"/>
      <point x="708" y="622"/>
      <point x="678" y="576"/>
      <point x="592" y="576" type="curve"/>
      <point x="510" y="576" type="line"/>
      <point x="510" y="469" type="line"/>
    </contour>
  </outline>
</glyph>
<glyph name="knDDAc2" format="1">
  <advance width="0"/>
  <outline>
    <contour>
      <point x="-304" y="-375"/>
      <point x="-266" y="-348"/>
      <point x="-257" y="-306" type="curve"/>
      <point x="-263" y="-305" type="line"/>
      <point x="-257" y="-346"/>
      <point x="-215" y="-375"/>
      <point x="-164" y="-375" type="curve" smooth="yes"/>
      <point x="-86" y="-375"/>
      <point x="-30" y="-321"/>
      <point x="-30" y="-245" type="curve" smooth="yes"/>
      <point x="-30" y="-144"/>
      <point x="-106" y="-53"/>
      <point x="-252" y="-53" type="curve" smooth="yes"/>
      <point x="-395" y="-53"/>
      <point x="-471" y="-150"/>
      <point x="-471" y="-250" type="curve" smooth="yes"/>
      <point x="-471" y="-327"/>
      <point x="-425" y="-375"/>
      <point x="-353" y="-375" type="curve" smooth="yes"/>
    </contour>
    <contour>
      <point x="-372" y="-306"/>
      <point x="-388" y="-286"/>
      <point x="-388" y="-249" type="curve" smooth="yes"/>
      <point x="-388" y="-187"/>
      <point x="-341" y="-119"/>
      <point x="-251" y="-119" type="curve" smooth="yes"/>
      <point x="-223" y="-119"/>
      <point x="-199" y="-123"/>
      <point x="-178" y="-131" type="curve"/>
      <point x="-174" y="-112" type="line"/>
      <point x="-211" y="-117"/>
      <point x="-237" y="-151"/>
      <point x="-237" y="-190" type="curve" smooth="yes"/>
      <point x="-237" y="-236"/>
      <point x="-203" y="-268"/>
      <point x="-155" y="-268" type="curve" smooth="yes"/>
      <point x="-119" y="-268"/>
      <point x="-89" y="-248"/>
      <point x="-81" y="-219" type="curve"/>
      <point x="-100" y="-211" type="line"/>
      <point x="-97" y="-220"/>
      <point x="-95" y="-228"/>
      <point x="-95" y="-236" type="curve" smooth="yes"/>
      <point x="-95" y="-280"/>
      <point x="-122" y="-306"/>
      <point x="-162" y="-306" type="curve" smooth="yes"/>
      <point x="-198" y="-306"/>
      <point x="-219" y="-286"/>
      <point x="-219" y="-253" type="curve" smooth="yes"/>
      <point x="-219" y="-245" type="line"/>
      <point x="-302" y="-245" type="line"/>
      <point x="-302" y="-253" type="line" smooth="yes"/>
      <point x="-302" y="-286"/>
      <point x="-320" y="-306"/>
      <point x="-345" y="-306" type="curve" smooth="yes"/>
    </contour>
    <contour>
      <point x="-164" y="-212"/>
      <point x="-174" y="-201"/>
      <point x="-174" y="-186" type="curve" smooth="yes"/>
      <point x="-174" y="-169"/>
      <point x="-162" y="-158"/>
      <point x="-147" y="-158" type="curve" smooth="yes"/>
      <point x="-132" y="-158"/>
      <point x="-120" y="-169"/>
      <point x="-120" y="-185" type="curve" smooth="yes"/>
      <point x="-120" y="-201"/>
      <point x="-132" y="-212"/>
      <point x="-147" y="-212" type="curve" smooth="yes"/>
    </contour>
  </outline>
</glyph>
<glyph name="knDDHI" format="1">
  <advance width="865"/>
  <outline>
    <contour>
      <point x="330" y="-9"/>
      <point x="398" y="36"/>
      <point x="414" y="114" type="curve"/>
      <point x="426" y="38"/>
      <point x="505" y="-9"/>
      <point x="598" y="-9" type="curve" smooth="yes"/>
      <point x="733" y="-9"/>
      <point x="835" y="87"/>
      <point x="835" y="235" type="curve" smooth="yes"/>
      <point x="835" y="395"/>
      <point x="678" y="570"/>
      <point x="430" y="570" type="curve" smooth="yes"/>
      <point x="197" y="570"/>
      <point x="30" y="410"/>
      <point x="30" y="219" type="curve" smooth="yes"/>
      <point x="30" y="83"/>
      <point x="106" y="-9"/>
      <point x="243" y="-9" type="curve" smooth="yes"/>
    </contour>
    <contour>
      <point x="492" y="-196" type="line"/>
      <point x="492" y="-181" type="line"/>
      <point x="448" y="4" type="line"/>
      <point x="382" y="4" type="line"/>
      <point x="338" y="-181" type="line"/>
      <point x="338" y="-196" type="line"/>
    </contour>
    <contour>
      <point x="202" y="106"/>
      <point x="172" y="151"/>
      <point x="172" y="229" type="curve" smooth="yes"/>
      <point x="172" y="346"/>
      <point x="252" y="458"/>
      <point x="432" y="458" type="curve" smooth="yes"/>
      <point x="480" y="458"/>
      <point x="524" y="451"/>
      <point x="563" y="438" type="curve"/>
      <point x="566" y="470" type="line"/>
      <point x="502" y="457"/>
      <point x="464" y="400"/>
      <point x="464" y="339" type="curve" smooth="yes"/>
      <point x="464" y="256"/>
      <point x="524" y="200"/>
      <point x="613" y="200" type="curve" smooth="yes"/>
      <point x="679" y="200"/>
      <point x="723" y="233"/>
      <point x="740" y="282" type="curve"/>
      <point x="718" y="301" type="line"/>
      <point x="723" y="283"/>
      <point x="726" y="268"/>
      <point x="726" y="252" type="curve" smooth="yes"/>
      <point x="726" y="161"/>
      <point x="675" y="106"/>
      <point x="596" y="106" type="curve" smooth="yes"/>
      <point x="529" y="106"/>
      <point x="485" y="147"/>
      <point x="485" y="210" type="curve" smooth="yes"/>
      <point x="485" y="221" type="line"/>
      <point x="343" y="221" type="line"/>
      <point x="343" y="210" type="line" smooth="yes"/>
      <point x="343" y="147"/>
      <point x="308" y="106"/>
      <point x="258" y="106" type="curve" smooth="yes"/>
    </contour>
    <contour>
      <point x="590" y="291"/>
      <point x="568" y="314"/>
      <point x="568" y="345" type="curve" smooth="yes"/>
      <point x="568" y="378"/>
      <point x="593" y="403"/>
      <point x="624" y="403" type="curve" smooth="yes"/>
      <point x="655" y="403"/>
      <point x="680" y="378"/>
      <point x="680" y="347" type="curve" smooth="yes"/>
      <point x="680" y="316"/>
      <point x="655" y="291"/>
      <point x="624" y="291" type="curve" smooth="yes"/>
    </contour>
    <contour>
      <point x="835" y="590"/>
      <point x="608" y="808"/>
      <point x="345" y="808" type="curve" smooth="yes"/>
      <point x="183" y="808"/>
      <point x="99" y="730"/>
      <point x="99" y="638" type="curve" smooth="yes"/>
      <point x="99" y="555"/>
      <point x="165" y="497"/>
      <point x="270" y="500" type="curve"/>
      <point x="410" y="569" type="line"/>
      <point x="287" y="563"/>
      <point x="241" y="586"/>
      <point x="241" y="630" type="curve" smooth="yes"/>
      <point x="241" y="670"/>
      <point x="280" y="696"/>
      <point x="357" y="696" type="curve" smooth="yes"/>
      <point x="530" y="696"/>
      <point x="705" y="558"/>
      <point x="715" y="350" type="curve"/>
      <point x="835" y="235" type="line"/>
    </contour>
  </outline>
</glyph>
<glyph name="knDI" format="1">
  <advance width="810"/>
  <outline>
    <contour>
      <point x="330" y="-9"/>
      <point x="393" y="38"/>
      <point x="405" y="114" type="curve"/>
      <point x="417" y="38"/>
      <point x="480" y="-9"/>
      <point x="567" y="-9" type="curve" smooth="yes"/>
      <point x="704" y="-9"/>
      <point x="780" y="83"/>
      <point x="780" y="225" type="curve" smooth="yes"/>
      <point x="780" y="411"/>
      <point x="646" y="568"/>
      <point x="405" y="568" type="curve" smooth="yes"/>
      <point x="164" y="568"/>
      <point x="30" y="411"/>
      <point x="30" y="225" type="curve" smooth="yes"/>
      <point x="30" y="83"/>
      <point x="106" y="-9"/>
      <point x="243" y="-9" type="curve" smooth="yes"/>
    </contour>
    <contour>
      <point x="201" y="106"/>
      <point x="172" y="160"/>
      <point x="172" y="235" type="curve" smooth="yes"/>
      <point x="172" y="345"/>
      <point x="240" y="456"/>
      <point x="405" y="456" type="curve" smooth="yes"/>
      <point x="570" y="456"/>
      <point x="638" y="345"/>
      <point x="638" y="235" type="curve" smooth="yes"/>
      <point x="638" y="160"/>
      <point x="609" y="106"/>
      <point x="552" y="106" type="curve" smooth="yes"/>
      <point x="504" y="106"/>
      <point x="476" y="147"/>
      <point x="476" y="210" type="curve" smooth="yes"/>
      <point x="476" y="241" type="line"/>
      <point x="334" y="241" type="line"/>
      <point x="334" y="210" type="line" smooth="yes"/>
      <point x="334" y="147"/>
      <point x="306" y="106"/>
      <point x="258" y="106" type="curve" smooth="yes"/>
    </contour>
    <contour>
      <point x="780" y="590"/>
      <point x="588" y="808"/>
      <point x="335" y="808" type="curve" smooth="yes"/>
      <point x="173" y="808"/>
      <point x="89" y="730"/>
      <point x="89" y="638" type="curve" smooth="yes"/>
      <point x="89" y="555"/>
      <point x="155" y="496"/>
      <point x="260" y="499" type="curve"/>
      <point x="400" y="568" type="line"/>
      <point x="277" y="562"/>
      <point x="231" y="586"/>
      <point x="231" y="630" type="curve" smooth="yes"/>
      <point x="231" y="670"/>
      <point x="270" y="696"/>
      <point x="347" y="696" type="curve" smooth="yes"/>
      <point x="510" y="696"/>
      <point x="650" y="558"/>
      <point x="660" y="350" type="curve"/>
      <point x="780" y="235" type="line"/>
    </contour>
  </outline>
</glyph>
<glyph name="knGA.base" format="1">
  <advance width="611"/>
  <outline>
    <contour>
      <point x="99" y="437" type="move"/>
      <point x="460" y="437" type="line" smooth="yes"/>
    </contour>
    <contour>
      <point x="512" y="27" type="move"/>
      <point x="534" y="73"/>
      <point x="547" y="118"/>
      <point x="547" y="180" type="curve" smooth="yes"/>
      <point x="547" y="273"/>
      <point x="483" y="379"/>
      <point x="358" y="437" type="curve"/>
    </contour>
    <contour>
      <point x="320" y="437" type="move"/>
      <point x="197" y="380"/>
      <point x="138" y="274"/>
      <point x="138" y="180" type="curve" smooth="yes"/>
      <point x="138" y="119"/>
      <point x="150" y="71"/>
      <point x="173" y="27" type="curve"/>
    </contour>
  </outline>
</glyph>
<glyph name="knGAc2" format="1">
  <advance width="0"/>
  <outline>
    <contour>
      <point x="-225" y="-369" type="line"/>
      <point x="-236" y="-334"/>
      <point x="-242" y="-299"/>
      <point x="-242" y="-248" type="curve" smooth="yes"/>
      <point x="-242" y="-194"/>
      <point x="-231" y="-120"/>
      <point x="-180" y="-120" type="curve" smooth="yes"/>
      <point x="-130" y="-120"/>
      <point x="-118" y="-194"/>
      <point x="-118" y="-248" type="curve" smooth="yes"/>
      <point x="-118" y="-299"/>
      <point x="-124" y="-334"/>
      <point x="-135" y="-369" type="curve"/>
      <point x="-44" y="-369" type="line"/>
      <point x="-35" y="-339"/>
      <point x="-30" y="-303"/>
      <point x="-30" y="-245" type="curve" smooth="yes"/>
      <point x="-30" y="-175"/>
      <point x="-61" y="-48"/>
      <point x="-180" y="-48" type="curve" smooth="yes"/>
      <point x="-299" y="-48"/>
      <point x="-330" y="-175"/>
      <point x="-330" y="-245" type="curve" smooth="yes"/>
      <point x="-330" y="-303"/>
      <point x="-325" y="-339"/>
      <point x="-316" y="-369" type="curve"/>
    </contour>
  </outline>
</glyph>
<glyph name="knGHA.base" format="1">
  <advance width="828"/>
  <outline>
    <contour>
      <point x="704" y="362" type="move"/>
      <point x="720" y="343"/>
      <point x="733" y="320"/>
      <point x="733" y="287" type="curve" smooth="yes"/>
      <point x="733" y="249"/>
      <point x="705" y="214"/>
      <point x="661" y="214" type="curve" smooth="yes"/>
      <point x="635" y="214"/>
      <point x="606" y="223"/>
      <point x="582" y="237" type="curve"/>
    </contour>
    <contour>
      <point x="359" y="-89" type="move"/>
      <point x="359" y="-192" type="line"/>
    </contour>
    <contour>
      <point x="91" y="437" type="move"/>
      <point x="616" y="437" type="line" smooth="yes"/>
    </contour>
    <contour>
      <point x="358" y="415" type="curve" smooth="yes"/>
      <point x="310" y="415"/>
      <point x="275" y="379"/>
      <point x="275" y="333" type="curve" smooth="yes"/>
      <point x="275" y="289"/>
      <point x="309" y="253"/>
      <point x="359" y="253" type="curve" smooth="yes"/>
      <point x="410" y="253"/>
      <point x="443" y="288"/>
      <point x="443" y="334" type="curve" smooth="yes"/>
      <point x="443" y="379"/>
      <point x="410" y="415"/>
    </contour>
    <contour>
      <point x="197" y="225" type="move"/>
      <point x="132" y="225"/>
      <point x="88" y="173"/>
      <point x="88" y="125" type="curve" smooth="yes"/>
      <point x="88" y="72"/>
      <point x="131" y="27"/>
      <point x="199" y="27" type="curve" smooth="yes"/>
      <point x="275" y="27"/>
      <point x="319" y="59"/>
      <point x="356" y="128" type="curve"/>
      <point x="361" y="128" type="line"/>
      <point x="403" y="63"/>
      <point x="449" y="27"/>
      <point x="522" y="27" type="curve" smooth="yes"/>
      <point x="594" y="27"/>
      <point x="637" y="76"/>
      <point x="637" y="134" type="curve" smooth="yes"/>
      <point x="637" y="181"/>
      <point x="613" y="215"/>
      <point x="572" y="238" type="curve"/>
    </contour>
  </outline>
</glyph>
<glyph name="knGHAc2" format="1">
  <advance width="0"/>
  <outline>
    <contour>
      <point x="-394" y="-419"/>
      <point x="-352" y="-383"/>
      <point x="-341" y="-341" type="curve"/>
      <point x="-333" y="-383"/>
      <point x="-290" y="-419"/>
      <point x="-239" y="-419" type="curve" smooth="yes"/>
      <point x="-164" y="-419"/>
      <point x="-111" y="-363"/>
      <point x="-111" y="-284" type="curve" smooth="yes"/>
      <point x="-111" y="-211"/>
      <point x="-160" y="-160"/>
      <point x="-227" y="-160" type="curve" smooth="yes"/>
      <point x="-238" y="-160"/>
      <point x="-249" y="-161"/>
      <point x="-262" y="-165" type="curve"/>
      <point x="-262" y="-241" type="line"/>
      <point x="-255" y="-239"/>
      <point x="-251" y="-238"/>
      <point x="-245" y="-238" type="curve" smooth="yes"/>
      <point x="-221" y="-238"/>
      <point x="-206" y="-254"/>
      <point x="-206" y="-284" type="curve" smooth="yes"/>
      <point x="-206" y="-317"/>
      <point x="-223" y="-340"/>
      <point x="-249" y="-340" type="curve" smooth="yes"/>
      <point x="-278" y="-340"/>
      <point x="-294" y="-318"/>
      <point x="-294" y="-278" type="curve" smooth="yes"/>
      <point x="-294" y="-252" type="line"/>
      <point x="-389" y="-252" type="line"/>
      <point x="-389" y="-278" type="line" smooth="yes"/>
      <point x="-389" y="-318"/>
      <point x="-406" y="-340"/>
      <point x="-435" y="-340" type="curve" smooth="yes"/>
      <point x="-462" y="-340"/>
      <point x="-478" y="-324"/>
      <point x="-478" y="-294" type="curve" smooth="yes"/>
      <point x="-478" y="-269"/>
      <point x="-461" y="-251"/>
      <point x="-439" y="-251" type="curve" smooth="yes"/>
      <point x="-434" y="-251"/>
      <point x="-427" y="-253"/>
      <point x="-423" y="-254" type="curve"/>
      <point x="-423" y="-177" type="line"/>
      <point x="-435" y="-175"/>
      <point x="-447" y="-173"/>
      <point x="-458" y="-173" type="curve" smooth="yes"/>
      <point x="-525" y="-173"/>
      <point x="-573" y="-222"/>
      <point x="-573" y="-294" type="curve" smooth="yes"/>
      <point x="-573" y="-369"/>
      <point x="-522" y="-419"/>
      <point x="-443" y="-419" type="curve" smooth="yes"/>
    </contour>
    <contour>
      <point x="-291" y="-529" type="line"/>
      <point x="-291" y="-516" type="line"/>
      <point x="-321" y="-408" type="line"/>
      <point x="-363" y="-408" type="line"/>
      <point x="-393" y="-516" type="line"/>
      <point x="-393" y="-529" type="line"/>
    </contour>
    <contour>
      <point x="-57" y="-244"/>
      <point x="-30" y="-216"/>
      <point x="-30" y="-171" type="curve" smooth="yes"/>
      <point x="-30" y="-148"/>
      <point x="-37" y="-128"/>
      <point x="-52" y="-106" type="curve"/>
      <point x="-133" y="-106" type="line"/>
      <point x="-118" y="-126"/>
      <point x="-112" y="-142"/>
      <point x="-112" y="-159" type="curve" smooth="yes"/>
      <point x="-112" y="-175"/>
      <point x="-121" y="-184"/>
      <point x="-138" y="-184" type="curve" smooth="yes"/>
      <point x="-151" y="-184"/>
      <point x="-162" y="-179"/>
      <point x="-175" y="-171" type="curve"/>
      <point x="-187" y="-180" type="line"/>
      <point x="-172" y="-208"/>
      <point x="-140" y="-244"/>
      <point x="-98" y="-244" type="curve" smooth="yes"/>
    </contour>
  </outline>
</glyph>
<glyph name="knGI" format="1">
  <advance width="574"/>
  <outline>
    <contour>
      <point x="521" y="0" type="line"/>
      <point x="535" y="51"/>
      <point x="544" y="115"/>
      <point x="544" y="181" type="curve" smooth="yes"/>
      <point x="544" y="353"/>
      <point x="491" y="566"/>
      <point x="287" y="566" type="curve"/>
      <point x="83" y="566"/>
      <point x="30" y="353"/>
      <point x="30" y="181" type="curve" smooth="yes"/>
      <point x="30" y="115"/>
      <point x="39" y="51"/>
      <point x="53" y="0" type="curve"/>
      <point x="202" y="0" type="line"/>
      <point x="184" y="58"/>
      <point x="173" y="121"/>
      <point x="173" y="206" type="curve" smooth="yes"/>
      <point x="173" y="322"/>
      <point x="194" y="461"/>
      <point x="287" y="461" type="curve"/>
      <point x="379" y="461"/>
      <point x="401" y="322"/>
      <point x="401" y="206" type="curve" smooth="yes"/>
      <point x="401" y="121"/>
      <point x="390" y="58"/>
      <point x="372" y="0" type="curve"/>
    </contour>
    <contour>
      <point x="544" y="486"/>
      <point x="486" y="785"/>
      <point x="225" y="785" type="curve" smooth="yes"/>
      <point x="124" y="785"/>
      <point x="51" y="723"/>
      <point x="51" y="635" type="curve" smooth="yes"/>
      <point x="51" y="556"/>
      <point x="105" y="506"/>
      <point x="183" y="497" type="curve"/>
      <point x="287" y="566" type="line"/>
      <point x="237" y="566"/>
      <point x="191" y="577"/>
      <point x="191" y="621" type="curve" smooth="yes"/>
      <point x="191" y="650"/>
      <point x="214" y="670"/>
      <point x="250" y="670" type="curve" smooth="yes"/>
      <point x="353" y="670"/>
      <point x="423" y="521"/>
      <point x="431" y="360" type="curve"/>
      <point x="544" y="181" type="line"/>
    </contour>
  </outline>
</glyph>
<glyph name="knJHE" format="1">
  <advance width="1192"/>
  <outline>
    <contour>
      <point x="831" y="-89" type="move"/>
      <point x="831" y="-192" type="line"/>
    </contour>
    <contour>
      <point x="88" y="437" type="move"/>
      <point x="441" y="437" type="line" smooth="yes"/>
    </contour>
    <contour>
      <point x="201" y="427"/>
      <point x="109" y="330"/>
      <point x="109" y="225" type="curve" smooth="yes"/>
      <point x="109" y="109"/>
      <point x="193" y="23"/>
      <point x="320" y="23" type="curve" smooth="yes"/>
      <point x="448" y="23"/>
      <point x="530" y="111"/>
      <point x="530" y="225" type="curve" smooth="yes"/>
      <point x="530" y="328"/>
      <point x="444" y="427"/>
      <point x="322" y="427" type="curve" smooth="yes"/>
    </contour>
    <contour>
      <point x="527" y="160" type="move"/>
      <point x="578" y="63"/>
      <point x="635" y="27"/>
      <point x="701" y="27" type="curve"/>
      <point x="772" y="27"/>
      <point x="816" y="81"/>
      <point x="816" y="167" type="curve" smooth="yes"/>
      <point x="816" y="258"/>
      <point x="775" y="351"/>
      <point x="707" y="416" type="curve"/>
    </contour>
    <contour>
      <point x="817" y="160" type="move"/>
      <point x="868" y="63"/>
      <point x="925" y="27"/>
      <point x="991" y="27" type="curve"/>
      <point x="1062" y="27"/>
      <point x="1106" y="81"/>
      <point x="1106" y="167" type="curve" smooth="yes"/>
      <point x="1106" y="258"/>
      <point x="1065" y="351"/>
      <point x="997" y="416" type="curve"/>
    </contour>
    <component base="knmE" xOffset="648"/>
  </outline>
</glyph>
<glyph name="knJHI" format="1">
  <advance width="1215"/>
  <outline>
    <contour>
      <point x="886" y="-206" type="line"/>
      <point x="886" y="-191" type="line"/>
      <point x="842" y="-6" type="line"/>
      <point x="776" y="-6" type="line"/>
      <point x="732" y="-191" type="line"/>
      <point x="732" y="-206" type="line"/>
    </contour>
    <contour>
      <point x="778" y="-10"/>
      <point x="851" y="114"/>
      <point x="851" y="269" type="curve" smooth="yes"/>
      <point x="851" y="433"/>
      <point x="783" y="576"/>
      <point x="591" y="576" type="curve"/>
      <point x="591" y="461" type="line"/>
      <point x="678" y="461"/>
      <point x="710" y="372"/>
      <point x="710" y="269" type="curve" smooth="yes"/>
      <point x="710" y="186"/>
      <point x="690" y="106"/>
      <point x="622" y="106" type="curve" smooth="yes"/>
      <point x="558" y="106"/>
      <point x="527" y="160"/>
      <point x="527" y="259" type="curve"/>
      <point x="462" y="224" type="line"/>
      <point x="462" y="80"/>
      <point x="510" y="-10"/>
      <point x="645" y="-10" type="curve" smooth="yes"/>
    </contour>
    <contour>
      <point x="1102" y="-10"/>
      <point x="1175" y="114"/>
      <point x="1175" y="269" type="curve" smooth="yes"/>
      <point x="1175" y="433"/>
      <point x="1107" y="576"/>
      <point x="915" y="576" type="curve"/>
      <point x="915" y="461" type="line"/>
      <point x="1002" y="461"/>
      <point x="1034" y="372"/>
      <point x="1034" y="269" type="curve" smooth="yes"/>
      <point x="1034" y="186"/>
      <point x="1014" y="106"/>
      <point x="946" y="106" type="curve" smooth="yes"/>
      <point x="882" y="106"/>
      <point x="851" y="160"/>
      <point x="851" y="259" type="curve"/>
      <point x="786" y="224" type="line"/>
      <point x="786" y="80"/>
      <point x="834" y="-10"/>
      <point x="969" y="-10" type="curve" smooth="yes"/>
    </contour>
    <component base="knRI" xOffset="-25"/>
  </outline>
</glyph>
<glyph name="knJI" format="1">
  <advance width="802"/>
  <outline>
    <contour>
      <point x="695" y="336"/>
      <point x="772" y="443"/>
      <point x="772" y="575" type="curve" smooth="yes"/>
      <point x="772" y="682"/>
      <point x="704" y="790"/>
      <point x="575" y="790" type="curve" smooth="yes"/>
      <point x="476" y="790"/>
      <point x="413" y="725"/>
      <point x="413" y="649" type="curve" smooth="yes"/>
      <point x="413" y="571"/>
      <point x="465" y="526"/>
      <point x="548" y="526" type="curve" smooth="yes"/>
      <point x="568" y="526"/>
      <point x="585" y="529"/>
      <point x="605" y="536" type="curve"/>
      <point x="605" y="615" type="line"/>
      <point x="593" y="612"/>
      <point x="585" y="611"/>
      <point x="574" y="611" type="curve" smooth="yes"/>
      <point x="547" y="611"/>
      <point x="532" y="624"/>
      <point x="532" y="647" type="curve" smooth="yes"/>
      <point x="532" y="670"/>
      <point x="550" y="688"/>
      <point x="581" y="688" type="curve" smooth="yes"/>
      <point x="629" y="688"/>
      <point x="652" y="636"/>
      <point x="652" y="586" type="curve" smooth="yes"/>
      <point x="652" y="509"/>
      <point x="608" y="449"/>
      <point x="527" y="449" type="curve" smooth="yes"/>
      <point x="405" y="449"/>
      <point x="374" y="587"/>
      <point x="237" y="587" type="curve" smooth="yes"/>
      <point x="127" y="587"/>
      <point x="67" y="525"/>
      <point x="67" y="443" type="curve" smooth="yes"/>
      <point x="67" y="425"/>
      <point x="69" y="406"/>
      <point x="75" y="389" type="curve"/>
      <point x="207" y="389" type="line"/>
      <point x="202" y="400"/>
      <point x="199" y="413"/>
      <point x="199" y="425" type="curve" smooth="yes"/>
      <point x="199" y="449"/>
      <point x="210" y="470"/>
      <point x="236" y="470" type="curve" smooth="yes"/>
      <point x="261" y="470"/>
      <point x="271" y="451"/>
      <point x="271" y="425" type="curve" smooth="yes"/>
      <point x="271" y="343"/>
      <point x="40" y="308"/>
      <point x="40" y="154" type="curve" smooth="yes"/>
      <point x="40" y="53"/>
      <point x="119" y="-10"/>
      <point x="236" y="-10" type="curve" smooth="yes"/>
      <point x="333" y="-10"/>
      <point x="407" y="33"/>
      <point x="420" y="114" type="curve"/>
      <point x="430" y="40"/>
      <point x="494" y="-10"/>
      <point x="585" y="-10" type="curve" smooth="yes"/>
      <point x="707" y="-10"/>
      <point x="768" y="70"/>
      <point x="768" y="164" type="curve" smooth="yes"/>
      <point x="768" y="198"/>
      <point x="759" y="236"/>
      <point x="743" y="270" type="curve"/>
      <point x="605" y="270" type="line"/>
      <point x="621" y="240"/>
      <point x="629" y="210"/>
      <point x="629" y="184" type="curve" smooth="yes"/>
      <point x="629" y="143"/>
      <point x="614" y="106"/>
      <point x="566" y="106" type="curve" smooth="yes"/>
      <point x="515" y="106"/>
      <point x="491" y="148"/>
      <point x="491" y="210" type="curve" smooth="yes"/>
      <point x="491" y="231" type="line"/>
      <point x="349" y="231" type="line"/>
      <point x="349" y="210" type="line" smooth="yes"/>
      <point x="349" y="142"/>
      <point x="308" y="106"/>
      <point x="244" y="106" type="curve" smooth="yes"/>
      <point x="212" y="106"/>
      <point x="182" y="121"/>
      <point x="182" y="156" type="curve" smooth="yes"/>
      <point x="182" y="240"/>
      <point x="397" y="296"/>
      <point x="397" y="410" type="curve"/>
      <point x="373" y="412" type="line"/>
      <point x="405" y="362"/>
      <point x="478" y="336"/>
      <point x="550" y="336" type="curve"/>
    </contour>
  </outline>
</glyph>
<glyph name="knKHAc2" format="1">
  <advance width="0"/>
  <outline>
    <contour>
      <point x="-265" y="-380"/>
      <point x="-193" y="-286"/>
      <point x="-193" y="-195" type="curve" smooth="yes"/>
      <point x="-193" y="-115"/>
      <point x="-244" y="-55"/>
      <point x="-315" y="-55" type="curve" smooth="yes"/>
      <point x="-370" y="-55"/>
      <point x="-411" y="-88"/>
      <point x="-411" y="-135" type="curve" smooth="yes"/>
      <point x="-411" y="-176"/>
      <point x="-378" y="-206"/>
      <point x="-330" y="-206" type="curve" smooth="yes"/>
      <point x="-316" y="-206"/>
      <point x="-304" y="-203"/>
      <point x="-294" y="-198" type="curve"/>
      <point x="-294" y="-142" type="line"/>
      <point x="-302" y="-146"/>
      <point x="-310" y="-148"/>
      <point x="-318" y="-148" type="curve" smooth="yes"/>
      <point x="-332" y="-148"/>
      <point x="-338" y="-144"/>
      <point x="-338" y="-136" type="curve" smooth="yes"/>
      <point x="-338" y="-126"/>
      <point x="-331" y="-121"/>
      <point x="-315" y="-121" type="curve" smooth="yes"/>
      <point x="-286" y="-121"/>
      <point x="-268" y="-149"/>
      <point x="-268" y="-190" type="curve" smooth="yes"/>
      <point x="-268" y="-266"/>
      <point x="-313" y="-314"/>
      <point x="-385" y="-314" type="curve" smooth="yes"/>
      <point x="-414" y="-314"/>
      <point x="-430" y="-306"/>
      <point x="-430" y="-291" type="curve" smooth="yes"/>
      <point x="-430" y="-280"/>
      <point x="-421" y="-272"/>
      <point x="-407" y="-272" type="curve" smooth="yes"/>
      <point x="-343" y="-272"/>
      <point x="-282" y="-379"/>
      <point x="-180" y="-379" type="curve" smooth="yes"/>
      <point x="-88" y="-379"/>
      <point x="-30" y="-316"/>
      <point x="-30" y="-218" type="curve" smooth="yes"/>
      <point x="-30" y="-119"/>
      <point x="-86" y="-60"/>
      <point x="-180" y="-61" type="curve"/>
      <point x="-180" y="-129" type="line"/>
      <point x="-137" y="-131"/>
      <point x="-112" y="-161"/>
      <point x="-112" y="-217" type="curve" smooth="yes"/>
      <point x="-112" y="-275"/>
      <point x="-138" y="-306"/>
      <point x="-184" y="-306" type="curve" smooth="yes"/>
      <point x="-266" y="-306"/>
      <point x="-313" y="-204"/>
      <point x="-416" y="-204" type="curve" smooth="yes"/>
      <point x="-470" y="-204"/>
      <point x="-507" y="-239"/>
      <point x="-507" y="-290" type="curve" smooth="yes"/>
      <point x="-507" y="-345"/>
      <point x="-459" y="-380"/>
      <point x="-386" y="-380" type="curve" smooth="yes"/>
    </contour>
  </outline>
</glyph>
<glyph name="knKHI" format="1">
  <advance width="959"/>
  <outline>
    <contour>
      <point x="466" y="-10"/>
      <point x="597" y="162"/>
      <point x="597" y="331" type="curve" smooth="yes"/>
      <point x="597" y="478"/>
      <point x="503" y="586"/>
      <point x="373" y="586" type="curve" smooth="yes"/>
      <point x="263" y="586"/>
      <point x="200" y="520"/>
      <point x="200" y="442" type="curve" smooth="yes"/>
      <point x="200" y="360"/>
      <point x="268" y="316"/>
      <point x="340" y="316" type="curve" smooth="yes"/>
      <point x="371" y="316"/>
      <point x="399" y="321"/>
      <point x="423" y="335" type="curve"/>
      <point x="423" y="431" type="line"/>
      <point x="406" y="419"/>
      <point x="389" y="413"/>
      <point x="368" y="413" type="curve" smooth="yes"/>
      <point x="342" y="413"/>
      <point x="324" y="421"/>
      <point x="324" y="441" type="curve" smooth="yes"/>
      <point x="324" y="462"/>
      <point x="340" y="474"/>
      <point x="373" y="474" type="curve" smooth="yes"/>
      <point x="435" y="474"/>
      <point x="467" y="413"/>
      <point x="467" y="339" type="curve" smooth="yes"/>
      <point x="467" y="207"/>
      <point x="393" y="102"/>
      <point x="242" y="102" type="curve" smooth="yes"/>
      <point x="193" y="102"/>
      <point x="152" y="115"/>
      <point x="152" y="151" type="curve" smooth="yes"/>
      <point x="152" y="174"/>
      <point x="170" y="192"/>
      <point x="202" y="192" type="curve" smooth="yes"/>
      <point x="325" y="192"/>
      <point x="437" y="-9"/>
      <point x="626" y="-9" type="curve" smooth="yes"/>
      <point x="810" y="-9"/>
      <point x="919" y="149"/>
      <point x="919" y="399" type="curve" smooth="yes"/>
      <point x="919" y="631"/>
      <point x="825" y="886"/>
      <point x="613" y="886" type="curve" smooth="yes"/>
      <point x="514" y="886"/>
      <point x="451" y="821"/>
      <point x="451" y="745" type="curve" smooth="yes"/>
      <point x="451" y="660"/>
      <point x="514" y="614"/>
      <point x="592" y="614" type="curve" smooth="yes"/>
      <point x="617" y="614"/>
      <point x="642" y="617"/>
      <point x="668" y="628" type="curve"/>
      <point x="668" y="716" type="line"/>
      <point x="651" y="708"/>
      <point x="635" y="704"/>
      <point x="618" y="704" type="curve" smooth="yes"/>
      <point x="592" y="704"/>
      <point x="570" y="716"/>
      <point x="570" y="744" type="curve" smooth="yes"/>
      <point x="570" y="767"/>
      <point x="589" y="784"/>
      <point x="619" y="784" type="curve" smooth="yes"/>
      <point x="713" y="784"/>
      <point x="785" y="589"/>
      <point x="785" y="423" type="curve" smooth="yes"/>
      <point x="785" y="233"/>
      <point x="727" y="117"/>
      <point x="618" y="117" type="curve" smooth="yes"/>
      <point x="464" y="117"/>
      <point x="376" y="308"/>
      <point x="185" y="308" type="curve" smooth="yes"/>
      <point x="86" y="308"/>
      <point x="20" y="245"/>
      <point x="20" y="153" type="curve" smooth="yes"/>
      <point x="20" y="58"/>
      <point x="101" y="-10"/>
      <point x="240" y="-10" type="curve" smooth="yes"/>
    </contour>
  </outline>
</glyph>
<glyph name="knLAc2" format="1">
  <advance width="0"/>
  <outline>
    <contour>
      <point x="-277" y="-292" type="line"/>
      <point x="-194" y="-292" type="line"/>
      <point x="-194" y="-174" type="line" smooth="yes"/>
      <point x="-194" y="-143"/>
      <point x="-180" y="-123"/>
      <point x="-155" y="-123" type="curve" smooth="yes"/>
      <point x="-129" y="-123"/>
      <point x="-112" y="-143"/>
      <point x="-112" y="-184" type="curve" smooth="yes"/>
      <point x="-112" y="-218"/>
      <point x="-118" y="-251"/>
      <point x="-133" y="-302" type="curve"/>
      <point x="-51" y="-302" type="line"/>
      <point x="-34" y="-255"/>
      <point x="-30" y="-218"/>
      <point x="-30" y="-184" type="curve" smooth="yes"/>
      <point x="-30" y="-110"/>
      <point x="-71" y="-54"/>
      <point x="-145" y="-54" type="curve" smooth="yes"/>
      <point x="-193" y="-54"/>
      <point x="-230" y="-83"/>
      <point x="-236" y="-124" type="curve"/>
      <point x="-242" y="-83"/>
      <point x="-278" y="-54"/>
      <point x="-326" y="-54" type="curve" smooth="yes"/>
      <point x="-400" y="-54"/>
      <point x="-441" y="-110"/>
      <point x="-441" y="-184" type="curve" smooth="yes"/>
      <point x="-441" y="-218"/>
      <point x="-437" y="-255"/>
      <point x="-420" y="-302" type="curve"/>
      <point x="-338" y="-302" type="line"/>
      <point x="-353" y="-251"/>
      <point x="-359" y="-218"/>
      <point x="-359" y="-184" type="curve" smooth="yes"/>
      <point x="-359" y="-143"/>
      <point x="-342" y="-123"/>
      <point x="-316" y="-123" type="curve" smooth="yes"/>
      <point x="-291" y="-123"/>
      <point x="-277" y="-143"/>
      <point x="-277" y="-174" type="curve"/>
    </contour>
  </outline>
</glyph>
<glyph name="knLI" format="1">
  <advance width="852"/>
  <outline>
    <contour>
      <point x="651" y="-21"/>
      <point x="812" y="173"/>
      <point x="812" y="445" type="curve" smooth="yes"/>
      <point x="812" y="671"/>
      <point x="712" y="806"/>
      <point x="563" y="806" type="curve" smooth="yes"/>
      <point x="464" y="806"/>
      <point x="401" y="741"/>
      <point x="401" y="665" type="curve" smooth="yes"/>
      <point x="401" y="587"/>
      <point x="453" y="542"/>
      <point x="536" y="542" type="curve" smooth="yes"/>
      <point x="556" y="542"/>
      <point x="573" y="545"/>
      <point x="593" y="552" type="curve"/>
      <point x="593" y="631" type="line"/>
      <point x="581" y="628"/>
      <point x="573" y="627"/>
      <point x="562" y="627" type="curve" smooth="yes"/>
      <point x="535" y="627"/>
      <point x="520" y="640"/>
      <point x="520" y="663" type="curve" smooth="yes"/>
      <point x="520" y="686"/>
      <point x="538" y="704"/>
      <point x="569" y="704" type="curve" smooth="yes"/>
      <point x="628" y="704"/>
      <point x="671" y="610"/>
      <point x="671" y="450" type="curve" smooth="yes"/>
      <point x="671" y="255"/>
      <point x="583" y="92"/>
      <point x="405" y="92" type="curve" smooth="yes"/>
      <point x="254" y="92"/>
      <point x="182" y="183"/>
      <point x="182" y="298" type="curve" smooth="yes"/>
      <point x="182" y="324"/>
      <point x="185" y="350"/>
      <point x="191" y="374" type="curve"/>
      <point x="163" y="366" type="line"/>
      <point x="172" y="298"/>
      <point x="216" y="262"/>
      <point x="286" y="262" type="curve" smooth="yes"/>
      <point x="377" y="262"/>
      <point x="434" y="332"/>
      <point x="434" y="422" type="curve" smooth="yes"/>
      <point x="434" y="500"/>
      <point x="384" y="586"/>
      <point x="262" y="586" type="curve" smooth="yes"/>
      <point x="108" y="586"/>
      <point x="40" y="437"/>
      <point x="40" y="304" type="curve" smooth="yes"/>
      <point x="40" y="111"/>
      <point x="185" y="-21"/>
      <point x="405" y="-21" type="curve" smooth="yes"/>
    </contour>
    <contour>
      <point x="217" y="360"/>
      <point x="196" y="382"/>
      <point x="196" y="416" type="curve" smooth="yes"/>
      <point x="196" y="447"/>
      <point x="216" y="474"/>
      <point x="249" y="474" type="curve" smooth="yes"/>
      <point x="286" y="474"/>
      <point x="305" y="449"/>
      <point x="305" y="418" type="curve" smooth="yes"/>
      <point x="305" y="387"/>
      <point x="287" y="360"/>
      <point x="252" y="360" type="curve" smooth="yes"/>
    </contour>
  </outline>
</glyph>
<glyph name="knLLLAc2" format="1">
  <advance width="0"/>
  <outline>
    <contour>
      <point x="-293" y="-378"/>
      <point x="-258" y="-352"/>
      <point x="-250" y="-310" type="curve"/>
      <point x="-256" y="-310" type="line"/>
      <point x="-248" y="-352"/>
      <point x="-213" y="-378"/>
      <point x="-164" y="-378" type="curve" smooth="yes"/>
      <point x="-84" y="-378"/>
      <point x="-30" y="-314"/>
      <point x="-30" y="-212" type="curve" smooth="yes"/>
      <point x="-30" y="-138"/>
      <point x="-67" y="-54"/>
      <point x="-151" y="-54" type="curve" smooth="yes"/>
      <point x="-217" y="-54"/>
      <point x="-244" y="-104"/>
      <point x="-244" y="-145" type="curve" smooth="yes"/>
      <point x="-244" y="-197"/>
      <point x="-210" y="-233"/>
      <point x="-159" y="-233" type="curve" smooth="yes"/>
      <point x="-117" y="-233"/>
      <point x="-88" y="-209"/>
      <point x="-89" y="-173" type="curve"/>
      <point x="-114" y="-166" type="line"/>
      <point x="-111" y="-183"/>
      <point x="-109" y="-198"/>
      <point x="-109" y="-223" type="curve" smooth="yes"/>
      <point x="-109" y="-276"/>
      <point x="-129" y="-310"/>
      <point x="-167" y="-310" type="curve" smooth="yes"/>
      <point x="-196" y="-310"/>
      <point x="-212" y="-294"/>
      <point x="-212" y="-263" type="curve" smooth="yes"/>
      <point x="-212" y="-246" type="line"/>
      <point x="-294" y="-246" type="line"/>
      <point x="-294" y="-263" type="line" smooth="yes"/>
      <point x="-294" y="-294"/>
      <point x="-310" y="-310"/>
      <point x="-339" y="-310" type="curve" smooth="yes"/>
      <point x="-377" y="-310"/>
      <point x="-397" y="-276"/>
      <point x="-397" y="-223" type="curve" smooth="yes"/>
      <point x="-397" y="-198"/>
      <point x="-395" y="-183"/>
      <point x="-392" y="-166" type="curve"/>
      <point x="-417" y="-173" type="line"/>
      <point x="-418" y="-209"/>
      <point x="-389" y="-233"/>
      <point x="-347" y="-233" type="curve" smooth="yes"/>
      <point x="-296" y="-233"/>
      <point x="-262" y="-197"/>
      <point x="-262" y="-145" type="curve" smooth="yes"/>
      <point x="-262" y="-104"/>
      <point x="-289" y="-54"/>
      <point x="-355" y="-54" type="curve" smooth="yes"/>
      <point x="-439" y="-54"/>
      <point x="-476" y="-138"/>
      <point x="-476" y="-212" type="curve" smooth="yes"/>
      <point x="-476" y="-314"/>
      <point x="-422" y="-378"/>
      <point x="-342" y="-378" type="curve" smooth="yes"/>
    </contour>
    <contour>
      <point x="-378" y="-175"/>
      <point x="-388" y="-165"/>
      <point x="-388" y="-148" type="curve" smooth="yes"/>
      <point x="-388" y="-131"/>
      <point x="-378" y="-120"/>
      <point x="-363" y="-120" type="curve" smooth="yes"/>
      <point x="-346" y="-120"/>
      <point x="-336" y="-130"/>
      <point x="-336" y="-147" type="curve" smooth="yes"/>
      <point x="-336" y="-163"/>
      <point x="-346" y="-175"/>
      <point x="-362" y="-175" type="curve" smooth="yes"/>
    </contour>
    <contour>
      <point x="-160" y="-175"/>
      <point x="-170" y="-163"/>
      <point x="-170" y="-147" type="curve" smooth="yes"/>
      <point x="-170" y="-130"/>
      <point x="-160" y="-120"/>
      <point x="-143" y="-120" type="curve" smooth="yes"/>
      <point x="-128" y="-120"/>
      <point x="-118" y="-131"/>
      <point x="-118" y="-148" type="curve" smooth="yes"/>
      <point x="-118" y="-165"/>
      <point x="-128" y="-175"/>
      <point x="-144" y="-175" type="curve" smooth="yes"/>
    </contour>
  </outline>
</glyph>
<glyph name="knMAc2" format="1">
  <advance width="0"/>
  <outline>
    <contour>
      <point x="-120" y="-387"/>
      <point x="-76" y="-379"/>
      <point x="-30" y="-359" type="curve"/>
      <point x="-30" y="-286" type="line"/>
      <point x="-72" y="-304"/>
      <point x="-117" y="-315"/>
      <point x="-159" y="-315" type="curve" smooth="yes"/>
      <point x="-237" y="-315"/>
      <point x="-282" y="-284"/>
      <point x="-282" y="-227" type="curve" smooth="yes"/>
      <point x="-282" y="-161"/>
      <point x="-232" y="-133"/>
      <point x="-174" y="-133" type="curve" smooth="yes"/>
      <point x="-145" y="-133"/>
      <point x="-123" y="-145"/>
      <point x="-123" y="-166" type="curve" smooth="yes"/>
      <point x="-123" y="-182"/>
      <point x="-129" y="-195"/>
      <point x="-145" y="-195" type="curve" smooth="yes"/>
      <point x="-163" y="-195"/>
      <point x="-171" y="-178"/>
      <point x="-171" y="-129" type="curve"/>
      <point x="-171" y="-26" type="line"/>
      <point x="-253" y="-26" type="line"/>
      <point x="-253" y="-140" type="line"/>
      <point x="-253" y="-223"/>
      <point x="-215" y="-265"/>
      <point x="-141" y="-265" type="curve" smooth="yes"/>
      <point x="-78" y="-265"/>
      <point x="-42" y="-219"/>
      <point x="-42" y="-167" type="curve" smooth="yes"/>
      <point x="-42" y="-99"/>
      <point x="-103" y="-64"/>
      <point x="-181" y="-64" type="curve" smooth="yes"/>
      <point x="-292" y="-64"/>
      <point x="-365" y="-129"/>
      <point x="-365" y="-225" type="curve" smooth="yes"/>
      <point x="-365" y="-325"/>
      <point x="-286" y="-387"/>
      <point x="-161" y="-387" type="curve" smooth="yes"/>
    </contour>
  </outline>
</glyph>
<glyph name="knNA.base" format="1">
  <advance width="625"/>
  <outline>
    <contour>
      <point x="112" y="437" type="move"/>
      <point x="446" y="437" type="line" smooth="yes"/>
    </contour>
    <contour>
      <point x="150" y="11" type="move"/>
      <point x="143" y="47"/>
      <point x="139" y="83"/>
      <point x="140" y="112" type="curve" smooth="yes"/>
      <point x="142" y="152"/>
      <point x="153" y="187"/>
      <point x="171" y="205" type="curve" smooth="yes"/>
      <point x="191" y="226"/>
      <point x="210" y="234"/>
      <point x="238" y="234" type="curve" smooth="yes"/>
      <point x="276" y="234"/>
      <point x="316" y="207"/>
      <point x="352" y="147" type="curve" smooth="yes"/>
      <point x="398" y="70"/>
      <point x="428" y="27"/>
      <point x="490" y="27" type="curve" smooth="yes"/>
      <point x="551" y="27"/>
      <point x="598" y="81"/>
      <point x="598" y="155" type="curve" smooth="yes"/>
      <point x="598" y="275"/>
      <point x="517" y="381"/>
      <point x="370" y="437" type="curve"/>
    </contour>
  </outline>
</glyph>
<glyph name="knNAc2" format="1">
  <advance width="0"/>
  <outline>
    <contour>
      <point x="-30" y="-376" type="line"/>
      <point x="-30" y="-215"/>
      <point x="-104" y="-107"/>
      <point x="-254" y="-107" type="curve" smooth="yes"/>
      <point x="-351" y="-107"/>
      <point x="-426" y="-166"/>
      <point x="-426" y="-254" type="curve" smooth="yes"/>
      <point x="-426" y="-324"/>
      <point x="-373" y="-375"/>
      <point x="-297" y="-375" type="curve" smooth="yes"/>
      <point x="-179" y="-375"/>
      <point x="-145" y="-283"/>
      <point x="-145" y="-170" type="curve"/>
      <point x="-145" y="-26" type="line"/>
      <point x="-227" y="-26" type="line"/>
      <point x="-227" y="-159" type="line"/>
      <point x="-227" y="-228"/>
      <point x="-235" y="-305"/>
      <point x="-293" y="-305" type="curve" smooth="yes"/>
      <point x="-329" y="-305"/>
      <point x="-345" y="-280"/>
      <point x="-345" y="-253" type="curve" smooth="yes"/>
      <point x="-345" y="-210"/>
      <point x="-310" y="-178"/>
      <point x="-253" y="-178" type="curve" smooth="yes"/>
      <point x="-163" y="-178"/>
      <point x="-112" y="-239"/>
      <point x="-112" y="-376" type="curve"/>
    </contour>
  </outline>
</glyph>
<glyph name="knNI" format="1">
  <advance width="794"/>
  <outline>
    <contour>
      <point x="230" y="-10"/>
      <point x="252" y="-7"/>
      <point x="272" y="-2" type="curve"/>
      <point x="272" y="110" type="line"/>
      <point x="261" y="106"/>
      <point x="250" y="105"/>
      <point x="237" y="105" type="curve" smooth="yes"/>
      <point x="195" y="105"/>
      <point x="172" y="132"/>
      <point x="172" y="181" type="curve" smooth="yes"/>
      <point x="172" y="229"/>
      <point x="196" y="256"/>
      <point x="234" y="256" type="curve" smooth="yes"/>
      <point x="356" y="256"/>
      <point x="317" y="-10"/>
      <point x="556" y="-10" type="curve" smooth="yes"/>
      <point x="696" y="-10"/>
      <point x="764" y="102"/>
      <point x="764" y="250" type="curve" smooth="yes"/>
      <point x="764" y="482"/>
      <point x="635" y="709"/>
      <point x="423" y="709" type="curve" smooth="yes"/>
      <point x="324" y="709"/>
      <point x="261" y="644"/>
      <point x="261" y="568" type="curve" smooth="yes"/>
      <point x="261" y="483"/>
      <point x="324" y="437"/>
      <point x="402" y="437" type="curve" smooth="yes"/>
      <point x="427" y="437"/>
      <point x="452" y="440"/>
      <point x="478" y="451" type="curve"/>
      <point x="478" y="539" type="line"/>
      <point x="461" y="531"/>
      <point x="445" y="527"/>
      <point x="428" y="527" type="curve" smooth="yes"/>
      <point x="402" y="527"/>
      <point x="380" y="539"/>
      <point x="380" y="567" type="curve" smooth="yes"/>
      <point x="380" y="590"/>
      <point x="399" y="607"/>
      <point x="429" y="607" type="curve" smooth="yes"/>
      <point x="533" y="607"/>
      <point x="623" y="419"/>
      <point x="623" y="233" type="curve"/>
      <point x="623" y="165"/>
      <point x="611" y="106"/>
      <point x="556" y="106" type="curve" smooth="yes"/>
      <point x="451" y="106"/>
      <point x="469" y="372"/>
      <point x="233" y="372" type="curve" smooth="yes"/>
      <point x="106" y="372"/>
      <point x="30" y="293"/>
      <point x="30" y="178" type="curve" smooth="yes"/>
      <point x="30" y="63"/>
      <point x="106" y="-10"/>
      <point x="209" y="-10" type="curve" smooth="yes"/>
    </contour>
  </outline>
</glyph>
<glyph name="knNNA.base" format="1">
  <advance width="760"/>
  <outline>
    <contour>
      <point x="125" y="437" type="move"/>
      <point x="565" y="437" type="line" smooth="yes"/>
    </contour>
    <contour>
      <point x="227" y="175" type="move"/>
      <point x="165" y="177"/>
      <point x="101" y="150"/>
      <point x="101" y="102" type="curve" smooth="yes"/>
      <point x="101" y="57"/>
      <point x="147" y="27"/>
      <point x="225" y="27" type="curve" smooth="yes"/>
      <point x="253" y="27"/>
      <point x="275" y="29"/>
      <point x="293" y="33" type="curve"/>
    </contour>
    <contour>
      <point x="646" y="117" type="move"/>
      <point x="619" y="140"/>
      <point x="586" y="160"/>
      <point x="536" y="160" type="curve" smooth="yes"/>
      <point x="475" y="160"/>
      <point x="440" y="124"/>
      <point x="440" y="89" type="curve" smooth="yes"/>
      <point x="440" y="50"/>
      <point x="480" y="23"/>
      <point x="531" y="23" type="curve" smooth="yes"/>
      <point x="608" y="23"/>
      <point x="659" y="76"/>
      <point x="658" y="170" type="curve" smooth="yes"/>
      <point x="657" y="273"/>
      <point x="597" y="324"/>
      <point x="513" y="324" type="curve" smooth="yes"/>
      <point x="457" y="324"/>
      <point x="410" y="288"/>
      <point x="377" y="244" type="curve"/>
      <point x="373" y="244" type="line"/>
      <point x="344" y="284"/>
      <point x="290" y="322"/>
      <point x="218" y="322" type="curve" smooth="yes"/>
      <point x="150" y="322"/>
      <point x="113" y="287"/>
      <point x="113" y="250" type="curve" smooth="yes"/>
      <point x="113" y="207"/>
      <point x="162" y="175"/>
      <point x="240" y="175" type="curve" smooth="yes"/>
      <point x="244" y="175"/>
      <point x="246" y="175"/>
      <point x="250" y="175" type="curve"/>
    </contour>
  </outline>
</glyph>
<glyph name="knNNI" format="1">
  <advance width="853"/>
  <outline>
    <contour>
      <point x="293" y="-11"/>
      <point x="331" y="-1"/>
      <point x="362" y="12" type="curve"/>
      <point x="362" y="133" type="line"/>
      <point x="332" y="117"/>
      <point x="298" y="107"/>
      <point x="265" y="107" type="curve" smooth="yes"/>
      <point x="214" y="107"/>
      <point x="182" y="123"/>
      <point x="182" y="161" type="curve" smooth="yes"/>
      <point x="182" y="201"/>
      <point x="212" y="221"/>
      <point x="266" y="221" type="curve" smooth="yes"/>
      <point x="291" y="221" type="line"/>
      <point x="291" y="339" type="line"/>
      <point x="272" y="339" type="line" smooth="yes"/>
      <point x="218" y="339"/>
      <point x="190" y="367"/>
      <point x="190" y="406" type="curve" smooth="yes"/>
      <point x="190" y="449"/>
      <point x="221" y="470"/>
      <point x="258" y="470" type="curve" smooth="yes"/>
      <point x="319" y="470"/>
      <point x="346" y="426"/>
      <point x="346" y="366" type="curve" smooth="yes"/>
      <point x="346" y="340" type="line"/>
      <point x="488" y="340" type="line"/>
      <point x="488" y="366" type="line" smooth="yes"/>
      <point x="488" y="421"/>
      <point x="504" y="470"/>
      <point x="566" y="470" type="curve" smooth="yes"/>
      <point x="641" y="470"/>
      <point x="664" y="376"/>
      <point x="664" y="287" type="curve" smooth="yes"/>
      <point x="664" y="258"/>
      <point x="664" y="229"/>
      <point x="658" y="202" type="curve"/>
      <point x="685" y="210" type="line"/>
      <point x="685" y="276"/>
      <point x="638" y="314"/>
      <point x="564" y="314" type="curve" smooth="yes"/>
      <point x="477" y="314"/>
      <point x="416" y="246"/>
      <point x="416" y="155" type="curve" smooth="yes"/>
      <point x="416" y="80"/>
      <point x="462" y="-10"/>
      <point x="591" y="-10" type="curve" smooth="yes"/>
      <point x="738" y="-10"/>
      <point x="806" y="126"/>
      <point x="806" y="272" type="curve" smooth="yes"/>
      <point x="806" y="422"/>
      <point x="733" y="586"/>
      <point x="571" y="586" type="curve" smooth="yes"/>
      <point x="484" y="586"/>
      <point x="427" y="534"/>
      <point x="417" y="462" type="curve"/>
      <point x="401" y="536"/>
      <point x="338" y="586"/>
      <point x="243" y="586" type="curve" smooth="yes"/>
      <point x="116" y="586"/>
      <point x="48" y="515"/>
      <point x="48" y="420" type="curve" smooth="yes"/>
      <point x="48" y="345"/>
      <point x="96" y="288"/>
      <point x="180" y="280" type="curve"/>
      <point x="97" y="273"/>
      <point x="40" y="220"/>
      <point x="40" y="146" type="curve" smooth="yes"/>
      <point x="40" y="40"/>
      <point x="130" y="-11"/>
      <point x="248" y="-11" type="curve" smooth="yes"/>
    </contour>
    <contour>
      <point x="563" y="102"/>
      <point x="543" y="126"/>
      <point x="543" y="158" type="curve" smooth="yes"/>
      <point x="543" y="189"/>
      <point x="559" y="216"/>
      <point x="596" y="216" type="curve" smooth="yes"/>
      <point x="632" y="216"/>
      <point x="652" y="191"/>
      <point x="652" y="160" type="curve" smooth="yes"/>
      <point x="652" y="129"/>
      <point x="632" y="102"/>
      <point x="599" y="102" type="curve" smooth="yes"/>
    </contour>
    <contour>
      <point x="680" y="480" type="line"/>
      <point x="761" y="513"/>
      <point x="813" y="588"/>
      <point x="813" y="681" type="curve" smooth="yes"/>
      <point x="813" y="788"/>
      <point x="745" y="886"/>
      <point x="616" y="886" type="curve" smooth="yes"/>
      <point x="517" y="886"/>
      <point x="454" y="821"/>
      <point x="454" y="745" type="curve" smooth="yes"/>
      <point x="454" y="667"/>
      <point x="506" y="622"/>
      <point x="589" y="622" type="curve" smooth="yes"/>
      <point x="609" y="622"/>
      <point x="626" y="625"/>
      <point x="646" y="632" type="curve"/>
      <point x="646" y="711" type="line"/>
      <point x="634" y="708"/>
      <point x="626" y="707"/>
      <point x="615" y="707" type="curve" smooth="yes"/>
      <point x="588" y="707"/>
      <point x="573" y="720"/>
      <point x="573" y="743" type="curve" smooth="yes"/>
      <point x="573" y="766"/>
      <point x="591" y="784"/>
      <point x="622" y="784" type="curve" smooth="yes"/>
      <point x="670" y="784"/>
      <point x="693" y="732"/>
      <point x="693" y="682" type="curve" smooth="yes"/>
      <point x="693" y="616"/>
      <point x="660" y="578"/>
      <point x="610" y="569" type="curve"/>
    </contour>
  </outline>
</glyph>
<glyph name="knNYAc2" format="1">
  <advance width="0"/>
  <outline>
    <contour>
      <point x="-140" y="-410" type="line"/>
      <point x="-167" y="-299"/>
      <point x="-269" y="-217"/>
      <point x="-379" y="-217" type="curve" smooth="yes"/>
      <point x="-468" y="-217"/>
      <point x="-526" y="-255"/>
      <point x="-526" y="-314" type="curve" smooth="yes"/>
      <point x="-526" y="-370"/>
      <point x="-471" y="-405"/>
      <point x="-382" y="-405" type="curve" smooth="yes"/>
      <point x="-251" y="-405"/>
      <point x="-152" y="-313"/>
      <point x="-152" y="-194" type="curve" smooth="yes"/>
      <point x="-152" y="-107"/>
      <point x="-196" y="-54"/>
      <point x="-269" y="-54" type="curve" smooth="yes"/>
      <point x="-315" y="-54"/>
      <point x="-350" y="-85"/>
      <point x="-357" y="-129" type="curve"/>
      <point x="-351" y="-129" type="line"/>
      <point x="-355" y="-85"/>
      <point x="-394" y="-54"/>
      <point x="-445" y="-54" type="curve" smooth="yes"/>
      <point x="-507" y="-54"/>
      <point x="-552" y="-96"/>
      <point x="-552" y="-154" type="curve" smooth="yes"/>
      <point x="-552" y="-175"/>
      <point x="-547" y="-197"/>
      <point x="-538" y="-216" type="curve"/>
      <point x="-451" y="-216" type="line"/>
      <point x="-461" y="-201"/>
      <point x="-466" y="-181"/>
      <point x="-466" y="-165" type="curve" smooth="yes"/>
      <point x="-466" y="-142"/>
      <point x="-454" y="-127"/>
      <point x="-434" y="-127" type="curve" smooth="yes"/>
      <point x="-412" y="-127"/>
      <point x="-398" y="-145"/>
      <point x="-398" y="-178" type="curve" smooth="yes"/>
      <point x="-398" y="-193" type="line"/>
      <point x="-310" y="-193" type="line"/>
      <point x="-310" y="-178" type="line" smooth="yes"/>
      <point x="-310" y="-150"/>
      <point x="-303" y="-127"/>
      <point x="-275" y="-127" type="curve" smooth="yes"/>
      <point x="-245" y="-127"/>
      <point x="-237" y="-156"/>
      <point x="-237" y="-193" type="curve" smooth="yes"/>
      <point x="-237" y="-279"/>
      <point x="-294" y="-334"/>
      <point x="-384" y="-334" type="curve" smooth="yes"/>
      <point x="-418" y="-334"/>
      <point x="-438" y="-325"/>
      <point x="-438" y="-311" type="curve" smooth="yes"/>
      <point x="-438" y="-296"/>
      <point x="-420" y="-288"/>
      <point x="-383" y="-288" type="curve" smooth="yes"/>
      <point x="-310" y="-288"/>
      <point x="-256" y="-333"/>
      <point x="-234" y="-410" type="curve"/>
    </contour>
    <contour>
      <point x="-153" y="-173" type="line"/>
      <point x="-153" y="-147"/>
      <point x="-148" y="-124"/>
      <point x="-127" y="-124" type="curve" smooth="yes"/>
      <point x="-116" y="-124"/>
      <point x="-109" y="-134"/>
      <point x="-109" y="-148" type="curve" smooth="yes"/>
      <point x="-109" y="-157"/>
      <point x="-110" y="-164"/>
      <point x="-114" y="-175" type="curve"/>
      <point x="-37" y="-175" type="line"/>
      <point x="-33" y="-162"/>
      <point x="-30" y="-148"/>
      <point x="-30" y="-133" type="curve" smooth="yes"/>
      <point x="-30" y="-86"/>
      <point x="-60" y="-54"/>
      <point x="-107" y="-54" type="curve" smooth="yes"/>
      <point x="-151" y="-54"/>
      <point x="-182" y="-87"/>
      <point x="-182" y="-134" type="curve"/>
    </contour>
  </outline>
</glyph>
<glyph name="knPHUU" format="1">
  <advance width="1565"/>
  <outline>
    <contour>
      <point x="390" y="89" type="move"/>
      <point x="480" y="-47"/>
      <point x="567" y="-113"/>
      <point x="673" y="-113" type="curve" smooth="yes"/>
      <point x="768" y="-113"/>
      <point x="814" y="-49"/>
      <point x="814" y="47" type="curve" smooth="yes"/>
      <point x="814" y="137"/>
      <point x="788" y="232"/>
      <point x="788" y="292" type="curve" smooth="yes"/>
      <point x="788" y="359"/>
      <point x="836" y="437"/>
      <point x="930" y="437" type="curve" smooth="yes"/>
      <point x="1031" y="437"/>
      <point x="1156" y="341"/>
      <point x="1156" y="171" type="curve" smooth="yes"/>
      <point x="1156" y="78"/>
      <point x="1109" y="23"/>
      <point x="1046" y="23" type="curve" smooth="yes"/>
      <point x="987" y="23"/>
      <point x="954" y="65"/>
      <point x="953" y="111" type="curve" smooth="yes"/>
      <point x="952" y="165"/>
      <point x="993" y="217"/>
      <point x="1067" y="217" type="curve" smooth="yes"/>
      <point x="1096" y="217"/>
      <point x="1126" y="213"/>
      <point x="1151" y="205" type="curve"/>
    </contour>
    <component base="knPHA"/>
  </outline>
</glyph>
<glyph name="knPU" format="1">
  <advance width="1122"/>
  <outline>
    <contour>
      <point x="390" y="89" type="move"/>
      <point x="480" y="-47"/>
      <point x="567" y="-113"/>
      <point x="673" y="-113" type="curve" smooth="yes"/>
      <point x="780" y="-113"/>
      <point x="855" y="-20"/>
      <point x="855" y="114" type="curve" smooth="yes"/>
      <point x="855" y="218"/>
      <point x="819" y="325"/>
      <point x="770" y="416" type="curve"/>
    </contour>
    <component base="knPA"/>
  </outline>
</glyph>
<glyph name="knRAc2" format="1">
  <advance width="0"/>
  <outline>
    <contour>
      <point x="-120" y="-24" type="line"/>
      <point x="-120" y="-73"/>
      <point x="-175" y="-106"/>
      <point x="-258" y="-106" type="curve" smooth="yes"/>
      <point x="-339" y="-106"/>
      <point x="-396" y="-73"/>
      <point x="-396" y="-24" type="curve"/>
      <point x="-486" y="-24" type="line"/>
      <point x="-486" y="-134"/>
      <point x="-389" y="-186"/>
      <point x="-258" y="-186" type="curve" smooth="yes"/>
      <point x="-132" y="-186"/>
      <point x="-30" y="-126"/>
      <point x="-30" y="-24" type="curve"/>
    </contour>
  </outline>
</glyph>
<glyph name="knRRI" format="1">
  <advance width="900"/>
  <outline>
    <contour>
      <point x="377" y="-10"/>
      <point x="433" y="38"/>
      <point x="450" y="114" type="curve"/>
      <point x="467" y="38"/>
      <point x="523" y="-10"/>
      <point x="612" y="-10" type="curve" smooth="yes"/>
      <point x="774" y="-10"/>
      <point x="860" y="131"/>
      <point x="860" y="284" type="curve" smooth="yes"/>
      <point x="860" y="414"/>
      <point x="798" y="586"/>
      <point x="628" y="586" type="curve" smooth="yes"/>
      <point x="516" y="586"/>
      <point x="466" y="493"/>
      <point x="466" y="418" type="curve" smooth="yes"/>
      <point x="466" y="328"/>
      <point x="523" y="257"/>
      <point x="614" y="257" type="curve" smooth="yes"/>
      <point x="684" y="257"/>
      <point x="728" y="293"/>
      <point x="737" y="361" type="curve"/>
      <point x="719" y="369" type="line"/>
      <point x="723" y="341"/>
      <point x="723" y="313"/>
      <point x="723" y="284" type="curve" smooth="yes"/>
      <point x="723" y="191"/>
      <point x="676" y="106"/>
      <point x="604" y="106" type="curve" smooth="yes"/>
      <point x="547" y="106"/>
      <point x="521" y="137"/>
      <point x="521" y="200" type="curve" smooth="yes"/>
      <point x="521" y="206" type="line"/>
      <point x="379" y="206" type="line"/>
      <point x="379" y="200" type="line" smooth="yes"/>
      <point x="379" y="137"/>
      <point x="353" y="106"/>
      <point x="296" y="106" type="curve" smooth="yes"/>
      <point x="224" y="106"/>
      <point x="177" y="191"/>
      <point x="177" y="284" type="curve" smooth="yes"/>
      <point x="177" y="313"/>
      <point x="178" y="342"/>
      <point x="181" y="369" type="curve"/>
      <point x="163" y="361" type="line"/>
      <point x="172" y="293"/>
      <point x="216" y="257"/>
      <point x="286" y="257" type="curve" smooth="yes"/>
      <point x="377" y="257"/>
      <point x="434" y="328"/>
      <point x="434" y="418" type="curve" smooth="yes"/>
      <point x="434" y="493"/>
      <point x="384" y="586"/>
      <point x="272" y="586" type="curve" smooth="yes"/>
      <point x="102" y="586"/>
      <point x="40" y="414"/>
      <point x="40" y="284" type="curve" smooth="yes"/>
      <point x="40" y="131"/>
      <point x="126" y="-10"/>
      <point x="288" y="-10" type="curve" smooth="yes"/>
    </contour>
    <contour>
      <point x="217" y="355"/>
      <point x="196" y="379"/>
      <point x="196" y="413" type="curve" smooth="yes"/>
      <point x="196" y="444"/>
      <point x="216" y="474"/>
      <point x="249" y="474" type="curve" smooth="yes"/>
      <point x="286" y="474"/>
      <point x="305" y="446"/>
      <point x="305" y="415" type="curve" smooth="yes"/>
      <point x="305" y="384"/>
      <point x="287" y="355"/>
      <point x="252" y="355" type="curve" smooth="yes"/>
    </contour>
    <contour>
      <point x="612" y="257" type="line"/>
      <point x="675" y="355" type="line"/>
      <point x="225" y="355" type="line"/>
      <point x="286" y="257" type="line"/>
    </contour>
    <contour>
      <point x="613" y="355"/>
      <point x="595" y="384"/>
      <point x="595" y="415" type="curve" smooth="yes"/>
      <point x="595" y="446"/>
      <point x="614" y="474"/>
      <point x="651" y="474" type="curve" smooth="yes"/>
      <point x="684" y="474"/>
      <point x="704" y="444"/>
      <point x="704" y="413" type="curve" smooth="yes"/>
      <point x="704" y="379"/>
      <point x="683" y="355"/>
      <point x="648" y="355" type="curve" smooth="yes"/>
    </contour>
    <contour>
      <point x="725" y="480" type="line"/>
      <point x="806" y="513"/>
      <point x="858" y="588"/>
      <point x="858" y="681" type="curve" smooth="yes"/>
      <point x="858" y="788"/>
      <point x="790" y="886"/>
      <point x="661" y="886" type="curve" smooth="yes"/>
      <point x="562" y="886"/>
      <point x="499" y="821"/>
      <point x="499" y="745" type="curve" smooth="yes"/>
      <point x="499" y="667"/>
      <point x="551" y="622"/>
      <point x="634" y="622" type="curve" smooth="yes"/>
      <point x="654" y="622"/>
      <point x="671" y="625"/>
      <point x="691" y="632" type="curve"/>
      <point x="691" y="711" type="line"/>
      <point x="679" y="708"/>
      <point x="671" y="707"/>
      <point x="660" y="707" type="curve" smooth="yes"/>
      <point x="633" y="707"/>
      <point x="618" y="720"/>
      <point x="618" y="743" type="curve" smooth="yes"/>
      <point x="618" y="766"/>
      <point x="636" y="784"/>
      <point x="667" y="784" type="curve" smooth="yes"/>
      <point x="715" y="784"/>
      <point x="738" y="732"/>
      <point x="738" y="682" type="curve" smooth="yes"/>
      <point x="738" y="616"/>
      <point x="705" y="578"/>
      <point x="655" y="569" type="curve"/>
    </contour>
  </outline>
</glyph>
<glyph name="knSA.base" format="1">
  <advance width="640"/>
  <outline>
    <contour>
      <point x="111" y="437" type="move"/>
      <point x="483" y="437" type="line" smooth="yes"/>
    </contour>
    <contour>
      <point x="121" y="4" type="move"/>
      <point x="126" y="74"/>
      <point x="149" y="128"/>
      <point x="173" y="155" type="curve" smooth="yes"/>
      <point x="190" y="175"/>
      <point x="216" y="190"/>
      <point x="252" y="190" type="curve" smooth="yes"/>
      <point x="294" y="190"/>
      <point x="332" y="164"/>
      <point x="374" y="114" type="curve" smooth="yes"/>
      <point x="420" y="59"/>
      <point x="457" y="27"/>
      <point x="505" y="27" type="curve" smooth="yes"/>
      <point x="562" y="27"/>
      <point x="600" y="90"/>
      <point x="600" y="172" type="curve" smooth="yes"/>
      <point x="600" y="200"/>
      <point x="594" y="238"/>
      <point x="585" y="267" type="curve"/>
    </contour>
    <contour>
      <point x="357" y="415" type="curve" smooth="yes"/>
      <point x="309" y="415"/>
      <point x="274" y="379"/>
      <point x="274" y="333" type="curve" smooth="yes"/>
      <point x="274" y="289"/>
      <point x="308" y="253"/>
      <point x="358" y="253" type="curve" smooth="yes"/>
      <point x="409" y="253"/>
      <point x="442" y="288"/>
      <point x="442" y="334" type="curve" smooth="yes"/>
      <point x="442" y="379"/>
      <point x="409" y="415"/>
    </contour>
  </outline>
</glyph>
<glyph name="knSAc2" format="1">
  <advance width="0"/>
  <outline>
    <contour>
      <point x="-68" y="-383"/>
      <point x="-30" y="-333"/>
      <point x="-30" y="-270" type="curve" smooth="yes"/>
      <point x="-30" y="-227"/>
      <point x="-42" y="-191"/>
      <point x="-67" y="-155" type="curve"/>
      <point x="-157" y="-155" type="line"/>
      <point x="-128" y="-190"/>
      <point x="-112" y="-229"/>
      <point x="-112" y="-270" type="curve" smooth="yes"/>
      <point x="-112" y="-300"/>
      <point x="-121" y="-312"/>
      <point x="-142" y="-312" type="curve" smooth="yes"/>
      <point x="-188" y="-312"/>
      <point x="-203" y="-229"/>
      <point x="-294" y="-229" type="curve" smooth="yes"/>
      <point x="-354" y="-229"/>
      <point x="-396" y="-268"/>
      <point x="-396" y="-325" type="curve" smooth="yes"/>
      <point x="-396" y="-344"/>
      <point x="-390" y="-361"/>
      <point x="-384" y="-378" type="curve"/>
      <point x="-302" y="-378" type="line"/>
      <point x="-311" y="-360"/>
      <point x="-314" y="-345"/>
      <point x="-314" y="-330" type="curve" smooth="yes"/>
      <point x="-314" y="-312"/>
      <point x="-305" y="-300"/>
      <point x="-287" y="-300" type="curve" smooth="yes"/>
      <point x="-246" y="-300"/>
      <point x="-229" y="-383"/>
      <point x="-138" y="-383" type="curve" smooth="yes"/>
    </contour>
  </outline>
</glyph>
<glyph name="knSHI" format="1">
  <advance width="772"/>
  <outline>
    <contour>
      <point x="477" y="-18"/>
      <point x="612" y="106"/>
      <point x="612" y="288" type="curve" smooth="yes"/>
      <point x="612" y="423"/>
      <point x="512" y="576"/>
      <point x="306" y="576" type="curve" smooth="yes"/>
      <point x="174" y="576"/>
      <point x="85" y="512"/>
      <point x="85" y="424" type="curve" smooth="yes"/>
      <point x="85" y="404"/>
      <point x="88" y="385"/>
      <point x="97" y="364" type="curve"/>
      <point x="237" y="364" type="line"/>
      <point x="230" y="379"/>
      <point x="227" y="393"/>
      <point x="227" y="408" type="curve" smooth="yes"/>
      <point x="227" y="445"/>
      <point x="258" y="474"/>
      <point x="317" y="474" type="curve" smooth="yes"/>
      <point x="413" y="474"/>
      <point x="476" y="399"/>
      <point x="476" y="298" type="curve" smooth="yes"/>
      <point x="476" y="172"/>
      <point x="395" y="86"/>
      <point x="277" y="86" type="curve" smooth="yes"/>
      <point x="206" y="86"/>
      <point x="172" y="109"/>
      <point x="172" y="146" type="curve" smooth="yes"/>
      <point x="172" y="277"/>
      <point x="732" y="183"/>
      <point x="732" y="631" type="curve" smooth="yes"/>
      <point x="732" y="738"/>
      <point x="664" y="836"/>
      <point x="535" y="836" type="curve" smooth="yes"/>
      <point x="436" y="836"/>
      <point x="373" y="771"/>
      <point x="373" y="695" type="curve" smooth="yes"/>
      <point x="373" y="617"/>
      <point x="425" y="572"/>
      <point x="508" y="572" type="curve" smooth="yes"/>
      <point x="528" y="572"/>
      <point x="545" y="575"/>
      <point x="565" y="582" type="curve"/>
      <point x="565" y="661" type="line"/>
      <point x="553" y="658"/>
      <point x="545" y="657"/>
      <point x="534" y="657" type="curve" smooth="yes"/>
      <point x="507" y="657"/>
      <point x="492" y="670"/>
      <point x="492" y="693" type="curve" smooth="yes"/>
      <point x="492" y="716"/>
      <point x="510" y="734"/>
      <point x="541" y="734" type="curve" smooth="yes"/>
      <point x="589" y="734"/>
      <point x="612" y="682"/>
      <point x="612" y="632" type="curve" smooth="yes"/>
      <point x="612" y="280"/>
      <point x="30" y="421"/>
      <point x="30" y="149" type="curve" smooth="yes"/>
      <point x="30" y="43"/>
      <point x="121" y="-18"/>
      <point x="279" y="-18" type="curve" smooth="yes"/>
    </contour>
  </outline>
</glyph>
<glyph name="knSSA.base" format="1">
  <advance width="700"/>
  <outline>
    <contour>
      <point x="503" y="156" type="move"/>
      <point x="638" y="-46" type="line"/>
    </contour>
    <contour>
      <point x="91" y="437" type="move"/>
      <point x="496" y="437" type="line" smooth="yes"/>
    </contour>
    <contour>
      <point x="358" y="415" type="curve" smooth="yes"/>
      <point x="310" y="415"/>
      <point x="275" y="379"/>
      <point x="275" y="333" type="curve" smooth="yes"/>
      <point x="275" y="289"/>
      <point x="309" y="253"/>
      <point x="359" y="253" type="curve" smooth="yes"/>
      <point x="410" y="253"/>
      <point x="443" y="288"/>
      <point x="443" y="334" type="curve" smooth="yes"/>
      <point x="443" y="379"/>
      <point x="410" y="415"/>
    </contour>
    <contour>
      <point x="197" y="225" type="move"/>
      <point x="132" y="225"/>
      <point x="88" y="173"/>
      <point x="88" y="125" type="curve" smooth="yes"/>
      <point x="88" y="72"/>
      <point x="131" y="27"/>
      <point x="199" y="27" type="curve" smooth="yes"/>
      <point x="275" y="27"/>
      <point x="319" y="59"/>
      <point x="356" y="128" type="curve"/>
      <point x="361" y="128" type="line"/>
      <point x="403" y="63"/>
      <point x="449" y="27"/>
      <point x="522" y="27" type="curve" smooth="yes"/>
      <point x="594" y="27"/>
      <point x="637" y="76"/>
      <point x="637" y="134" type="curve" smooth="yes"/>
      <point x="637" y="181"/>
      <point x="613" y="215"/>
      <point x="572" y="238" type="curve"/>
    </contour>
  </outline>
</glyph>
<glyph name="knTA.base" format="1">
  <advance width="628"/>
  <outline>
    <contour>
      <point x="128" y="437" type="move"/>
      <point x="456" y="437" type="line" smooth="yes"/>
    </contour>
    <contour>
      <point x="79" y="134" type="move"/>
      <point x="127" y="70"/>
      <point x="209" y="18"/>
      <point x="343" y="18" type="curve" smooth="yes"/>
      <point x="506" y="18"/>
      <point x="580" y="88"/>
      <point x="580" y="168" type="curve" smooth="yes"/>
      <point x="580" y="249"/>
      <point x="504" y="320"/>
      <point x="346" y="320" type="curve" smooth="yes"/>
      <point x="260" y="320"/>
      <point x="226" y="283"/>
      <point x="226" y="245" type="curve" smooth="yes"/>
      <point x="226" y="208"/>
      <point x="259" y="175"/>
      <point x="321" y="174" type="curve" smooth="yes"/>
      <point x="417" y="173"/>
      <point x="461" y="230"/>
      <point x="461" y="293" type="curve" smooth="yes"/>
      <point x="461" y="338"/>
      <point x="446" y="386"/>
      <point x="401" y="437" type="curve"/>
    </contour>
  </outline>
</glyph>
<glyph name="knTHA.base" format="1">
  <advance width="721"/>
  <outline>
    <contour>
      <point x="358" y="336" type="curve" smooth="yes"/>
      <point x="320" y="336"/>
      <point x="291" y="304"/>
      <point x="291" y="271" type="curve" smooth="yes"/>
      <point x="291" y="234"/>
      <point x="318" y="204"/>
      <point x="358" y="204" type="curve" smooth="yes"/>
      <point x="396" y="204"/>
      <point x="424" y="234"/>
      <point x="424" y="271" type="curve" smooth="yes"/>
      <point x="424" y="305"/>
      <point x="396" y="336"/>
    </contour>
    <contour>
      <point x="358" y="-89" type="move"/>
      <point x="358" y="-192" type="line"/>
    </contour>
    <contour>
      <point x="96" y="437" type="move"/>
      <point x="499" y="437" type="line" smooth="yes"/>
    </contour>
    <contour>
      <point x="303" y="437" type="move"/>
      <point x="179" y="382"/>
      <point x="91" y="274"/>
      <point x="91" y="172" type="curve" smooth="yes"/>
      <point x="91" y="80"/>
      <point x="143" y="27"/>
      <point x="216" y="27" type="curve" smooth="yes"/>
      <point x="281" y="27"/>
      <point x="320" y="61"/>
      <point x="355" y="128" type="curve"/>
      <point x="360" y="128" type="line"/>
      <point x="398" y="58"/>
      <point x="435" y="27"/>
      <point x="504" y="27" type="curve" smooth="yes"/>
      <point x="576" y="27"/>
      <point x="630" y="80"/>
      <point x="630" y="172" type="curve" smooth="yes"/>
      <point x="630" y="273"/>
      <point x="538" y="381"/>
      <point x="411" y="437" type="curve"/>
    </contour>
  </outline>
</glyph>
<glyph name="knTHAc2" format="1">
  <advance width="0"/>
  <outline>
    <contour>
      <point x="-290" y="-382"/>
      <point x="-252" y="-354"/>
      <point x="-245" y="-308" type="curve"/>
      <point x="-251" y="-308" type="line"/>
      <point x="-244" y="-354"/>
      <point x="-206" y="-382"/>
      <point x="-155" y="-382" type="curve" smooth="yes"/>
      <point x="-77" y="-382"/>
      <point x="-30" y="-330"/>
      <point x="-30" y="-245" type="curve" smooth="yes"/>
      <point x="-30" y="-140"/>
      <point x="-114" y="-54"/>
      <point x="-248" y="-54" type="curve" smooth="yes"/>
      <point x="-382" y="-54"/>
      <point x="-466" y="-140"/>
      <point x="-466" y="-245" type="curve" smooth="yes"/>
      <point x="-466" y="-330"/>
      <point x="-419" y="-382"/>
      <point x="-341" y="-382" type="curve" smooth="yes"/>
    </contour>
    <contour>
      <point x="-361" y="-310"/>
      <point x="-379" y="-284"/>
      <point x="-379" y="-239" type="curve" smooth="yes"/>
      <point x="-379" y="-182"/>
      <point x="-341" y="-126"/>
      <point x="-248" y="-126" type="curve" smooth="yes"/>
      <point x="-155" y="-126"/>
      <point x="-117" y="-182"/>
      <point x="-117" y="-239" type="curve" smooth="yes"/>
      <point x="-117" y="-284"/>
      <point x="-135" y="-310"/>
      <point x="-164" y="-310" type="curve" smooth="yes"/>
      <point x="-189" y="-310"/>
      <point x="-204" y="-289"/>
      <point x="-204" y="-253" type="curve" smooth="yes"/>
      <point x="-204" y="-233" type="line"/>
      <point x="-292" y="-233" type="line"/>
      <point x="-292" y="-253" type="line" smooth="yes"/>
      <point x="-292" y="-289"/>
      <point x="-307" y="-310"/>
      <point x="-332" y="-310" type="curve" smooth="yes"/>
    </contour>
    <contour>
      <point x="-223" y="-193"/>
      <point x="-204" y="-174"/>
      <point x="-204" y="-149" type="curve" smooth="yes"/>
      <point x="-204" y="-125"/>
      <point x="-223" y="-105"/>
      <point x="-248" y="-105" type="curve" smooth="yes"/>
      <point x="-272" y="-105"/>
      <point x="-292" y="-124"/>
      <point x="-292" y="-149" type="curve" smooth="yes"/>
      <point x="-292" y="-174"/>
      <point x="-273" y="-193"/>
      <point x="-248" y="-193" type="curve" smooth="yes"/>
    </contour>
    <contour>
      <point x="-197" y="-491" type="line"/>
      <point x="-197" y="-478" type="line"/>
      <point x="-227" y="-370" type="line"/>
      <point x="-269" y="-370" type="line"/>
      <point x="-299" y="-478" type="line"/>
      <point x="-299" y="-491" type="line"/>
    </contour>
  </outline>
</glyph>
<glyph name="knTTHI" format="1">
  <advance width="577"/>
  <outline>
    <contour>
      <point x="455" y="-8"/>
      <point x="547" y="117"/>
      <point x="547" y="283" type="curve" smooth="yes"/>
      <point x="547" y="572"/>
      <point x="460" y="795"/>
      <point x="229" y="795" type="curve" smooth="yes"/>
      <point x="128" y="795"/>
      <point x="55" y="733"/>
      <point x="55" y="645" type="curve" smooth="yes"/>
      <point x="55" y="580"/>
      <point x="100" y="530"/>
      <point x="163" y="515" type="curve"/>
      <point x="163" y="538" type="line"/>
      <point x="83" y="500"/>
      <point x="30" y="384"/>
      <point x="30" y="276" type="curve" smooth="yes"/>
      <point x="30" y="105"/>
      <point x="127" y="-8"/>
      <point x="289" y="-8" type="curve" smooth="yes"/>
    </contour>
    <contour>
      <point x="212" y="105"/>
      <point x="179" y="171"/>
      <point x="179" y="280" type="curve" smooth="yes"/>
      <point x="179" y="376"/>
      <point x="207" y="463"/>
      <point x="290" y="463" type="curve" smooth="yes"/>
      <point x="373" y="463"/>
      <point x="398" y="374"/>
      <point x="398" y="278" type="curve" smooth="yes"/>
      <point x="398" y="169"/>
      <point x="369" y="105"/>
      <point x="290" y="105" type="curve" smooth="yes"/>
    </contour>
    <contour>
      <point x="330" y="211"/>
      <point x="361" y="242"/>
      <point x="361" y="283" type="curve" smooth="yes"/>
      <point x="361" y="324"/>
      <point x="330" y="355"/>
      <point x="289" y="355" type="curve" smooth="yes"/>
      <point x="248" y="355"/>
      <point x="217" y="324"/>
      <point x="217" y="283" type="curve" smooth="yes"/>
      <point x="217" y="242"/>
      <point x="248" y="211"/>
      <point x="289" y="211" type="curve" smooth="yes"/>
    </contour>
    <contour>
      <point x="419" y="532" type="line"/>
      <point x="385" y="560"/>
      <point x="337" y="576"/>
      <point x="284" y="576" type="curve" smooth="yes"/>
      <point x="236" y="576"/>
      <point x="195" y="589"/>
      <point x="195" y="631" type="curve" smooth="yes"/>
      <point x="195" y="660"/>
      <point x="218" y="680"/>
      <point x="256" y="680" type="curve" smooth="yes"/>
      <point x="333" y="680"/>
      <point x="384" y="602"/>
      <point x="411" y="509" type="curve"/>
    </contour>
  </outline>
</glyph>
<glyph name="knTTI" format="1">
  <advance width="897"/>
  <outline>
    <contour>
      <point x="390" y="-10"/>
      <point x="460" y="36"/>
      <point x="479" y="114" type="curve"/>
      <point x="496" y="36"/>
      <point x="556" y="-10"/>
      <point x="652" y="-10" type="curve" smooth="yes"/>
      <point x="771" y="-10"/>
      <point x="857" y="62"/>
      <point x="857" y="171" type="curve" smooth="yes"/>
      <point x="857" y="264"/>
      <point x="794" y="325"/>
      <point x="690" y="330" type="curve"/>
      <point x="795" y="339"/>
      <point x="846" y="427"/>
      <point x="846" y="514" type="curve" smooth="yes"/>
      <point x="846" y="619"/>
      <point x="776" y="711"/>
      <point x="647" y="711" type="curve" smooth="yes"/>
      <point x="548" y="711"/>
      <point x="485" y="646"/>
      <point x="485" y="570" type="curve" smooth="yes"/>
      <point x="485" y="492"/>
      <point x="537" y="447"/>
      <point x="620" y="447" type="curve" smooth="yes"/>
      <point x="640" y="447"/>
      <point x="657" y="450"/>
      <point x="677" y="457" type="curve"/>
      <point x="677" y="536" type="line"/>
      <point x="665" y="533"/>
      <point x="657" y="532"/>
      <point x="646" y="532" type="curve" smooth="yes"/>
      <point x="619" y="532"/>
      <point x="604" y="545"/>
      <point x="604" y="568" type="curve" smooth="yes"/>
      <point x="604" y="591"/>
      <point x="622" y="609"/>
      <point x="653" y="609" type="curve" smooth="yes"/>
      <point x="701" y="609"/>
      <point x="726" y="565"/>
      <point x="726" y="515" type="curve" smooth="yes"/>
      <point x="726" y="443"/>
      <point x="680" y="391"/>
      <point x="593" y="391" type="curve"/>
      <point x="566" y="391" type="line"/>
      <point x="566" y="273" type="line"/>
      <point x="594" y="273" type="line" smooth="yes"/>
      <point x="679" y="273"/>
      <point x="715" y="244"/>
      <point x="715" y="186" type="curve" smooth="yes"/>
      <point x="715" y="140"/>
      <point x="691" y="106"/>
      <point x="639" y="106" type="curve" smooth="yes"/>
      <point x="576" y="106"/>
      <point x="550" y="145"/>
      <point x="550" y="205" type="curve" smooth="yes"/>
      <point x="550" y="221" type="line"/>
      <point x="408" y="221" type="line"/>
      <point x="408" y="205" type="line" smooth="yes"/>
      <point x="408" y="142"/>
      <point x="367" y="106"/>
      <point x="303" y="106" type="curve" smooth="yes"/>
      <point x="240" y="106"/>
      <point x="170" y="139"/>
      <point x="170" y="270" type="curve" smooth="yes"/>
      <point x="170" y="281"/>
      <point x="171" y="294"/>
      <point x="172" y="307" type="curve"/>
      <point x="162" y="269" type="line"/>
      <point x="169" y="212"/>
      <point x="224" y="190"/>
      <point x="273" y="190" type="curve" smooth="yes"/>
      <point x="361" y="190"/>
      <point x="416" y="256"/>
      <point x="416" y="342" type="curve" smooth="yes"/>
      <point x="416" y="416"/>
      <point x="361" y="494"/>
      <point x="255" y="494" type="curve" smooth="yes"/>
      <point x="110" y="494"/>
      <point x="40" y="371"/>
      <point x="40" y="248" type="curve" smooth="yes"/>
      <point x="40" y="102"/>
      <point x="140" y="-10"/>
      <point x="291" y="-10" type="curve" smooth="yes"/>
    </contour>
    <contour>
      <point x="206" y="288"/>
      <point x="186" y="309"/>
      <point x="186" y="339" type="curve" smooth="yes"/>
      <point x="186" y="366"/>
      <point x="204" y="392"/>
      <point x="236" y="392" type="curve" smooth="yes"/>
      <point x="271" y="392"/>
      <point x="289" y="370"/>
      <point x="289" y="341" type="curve" smooth="yes"/>
      <point x="289" y="313"/>
      <point x="273" y="288"/>
      <point x="239" y="288" type="curve" smooth="yes"/>
    </contour>
    <contour>
      <point x="312" y="494"/>
      <point x="281" y="523"/>
      <point x="281" y="577" type="curve" smooth="yes"/>
      <point x="281" y="597"/>
      <point x="283" y="620"/>
      <point x="294" y="643" type="curve"/>
      <point x="131" y="643" type="line"/>
      <point x="128" y="633"/>
      <point x="126" y="621"/>
      <point x="126" y="611" type="curve" smooth="yes"/>
      <point x="126" y="526"/>
      <point x="191" y="489"/>
      <point x="252" y="470" type="curve"/>
      <point x="355" y="464" type="line"/>
    </contour>
  </outline>
</glyph>
<glyph name="knVA.base" format="1">
  <advance width="703"/>
  <outline>
    <contour>
      <point x="101" y="437" type="move"/>
      <point x="486" y="437" type="line" smooth="yes"/>
    </contour>
    <contour>
      <point x="197" y="225" type="move"/>
      <point x="132" y="225"/>
      <point x="88" y="173"/>
      <point x="88" y="125" type="curve" smooth="yes"/>
      <point x="88" y="72"/>
      <point x="131" y="27"/>
      <point x="199" y="27" type="curve" smooth="yes"/>
      <point x="275" y="27"/>
      <point x="319" y="59"/>
      <point x="356" y="128" type="curve"/>
      <point x="361" y="128" type="line"/>
      <point x="403" y="63"/>
      <point x="443" y="27"/>
      <point x="511" y="27" type="curve" smooth="yes"/>
      <point x="577" y="27"/>
      <point x="637" y="78"/>
      <point x="637" y="158" type="curve" smooth="yes"/>
      <point x="637" y="256"/>
      <point x="568" y="362"/>
      <point x="402" y="434" type="curve"/>
    </contour>
  </outline>
</glyph>
<glyph name="knVI" format="1">
  <advance width="802"/>
  <outline>
    <contour>
      <point x="318" y="-10"/>
      <point x="380" y="38"/>
      <point x="395" y="114" type="curve"/>
      <point x="407" y="37"/>
      <point x="469" y="-10"/>
      <point x="559" y="-10" type="curve" smooth="yes"/>
      <point x="688" y="-10"/>
      <point x="772" y="86"/>
      <point x="772" y="252" type="curve"/>
      <point x="772" y="452"/>
      <point x="652" y="709"/>
      <point x="426" y="709" type="curve" smooth="yes"/>
      <point x="322" y="709"/>
      <point x="261" y="644"/>
      <point x="261" y="568" type="curve" smooth="yes"/>
      <point x="261" y="483"/>
      <point x="324" y="437"/>
      <point x="402" y="437" type="curve" smooth="yes"/>
      <point x="427" y="437"/>
      <point x="452" y="440"/>
      <point x="478" y="451" type="curve"/>
      <point x="478" y="539" type="line"/>
      <point x="461" y="531"/>
      <point x="445" y="527"/>
      <point x="428" y="527" type="curve" smooth="yes"/>
      <point x="402" y="527"/>
      <point x="380" y="539"/>
      <point x="380" y="567" type="curve" smooth="yes"/>
      <point x="380" y="590"/>
      <point x="399" y="607"/>
      <point x="431" y="607" type="curve" smooth="yes"/>
      <point x="543" y="607"/>
      <point x="631" y="420"/>
      <point x="631" y="262" type="curve" smooth="yes"/>
      <point x="631" y="160"/>
      <point x="605" y="106"/>
      <point x="546" y="106" type="curve" smooth="yes"/>
      <point x="490" y="106"/>
      <point x="466" y="150"/>
      <point x="466" y="210" type="curve" smooth="yes"/>
      <point x="466" y="246" type="line"/>
      <point x="324" y="246" type="line"/>
      <point x="324" y="210" type="line" smooth="yes"/>
      <point x="324" y="147"/>
      <point x="296" y="106"/>
      <point x="245" y="106" type="curve" smooth="yes"/>
      <point x="202" y="106"/>
      <point x="172" y="132"/>
      <point x="172" y="184" type="curve" smooth="yes"/>
      <point x="172" y="226"/>
      <point x="199" y="257"/>
      <point x="239" y="257" type="curve" smooth="yes"/>
      <point x="246" y="257"/>
      <point x="253" y="256"/>
      <point x="260" y="254" type="curve"/>
      <point x="260" y="366" type="line"/>
      <point x="242" y="370"/>
      <point x="225" y="372"/>
      <point x="209" y="372" type="curve" smooth="yes"/>
      <point x="106" y="372"/>
      <point x="30" y="299"/>
      <point x="30" y="184" type="curve" smooth="yes"/>
      <point x="30" y="69"/>
      <point x="106" y="-10"/>
      <point x="233" y="-10" type="curve" smooth="yes"/>
    </contour>
  </outline>
</glyph>
<glyph name="knVU" format="1">
  <advance width="820"/>
  <outline>
    <contour>
      <point x="390" y="89" type="move"/>
      <point x="480" y="-47"/>
      <point x="567" y="-113"/>
      <point x="673" y="-113" type="curve" smooth="yes"/>
      <point x="780" y="-113"/>
      <point x="855" y="-20"/>
      <point x="855" y="114" type="curve" smooth="yes"/>
      <point x="855" y="218"/>
      <point x="819" y="325"/>
      <point x="770" y="416" type="curve"/>
    </contour>
    <component base="knVA"/>
  </outline>
</glyph>
<glyph name="knYA.base" format="1">
  <advance width="1163"/>
  <outline>
    <contour>
      <point x="909" y="437" type="move"/>
      <point x="970" y="437" type="line"/>
    </contour>
    <component base="knYA"/>
  </outline>
</glyph>
<glyph name="knYAc2" format="1">
  <advance width="0"/>
  <outline>
    <contour>
      <point x="-54" y="88" type="line"/>
      <point x="-126" y="88"/>
      <point x="-178" y="59"/>
      <point x="-178" y="-4" type="curve" smooth="yes"/>
      <point x="-178" y="-71"/>
      <point x="-111" y="-142"/>
      <point x="-111" y="-221" type="curve" smooth="yes"/>
      <point x="-111" y="-269"/>
      <point x="-148" y="-304"/>
      <point x="-215" y="-304" type="curve" smooth="yes"/>
      <point x="-244" y="-304"/>
      <point x="-262" y="-296"/>
      <point x="-262" y="-277" type="curve" smooth="yes"/>
      <point x="-262" y="-242"/>
      <point x="-162" y="-219"/>
      <point x="-162" y="-140" type="curve" smooth="yes"/>
      <point x="-162" y="-87"/>
      <point x="-201" y="-51"/>
      <point x="-257" y="-51" type="curve" smooth="yes"/>
      <point x="-317" y="-51"/>
      <point x="-356" y="-85"/>
      <point x="-356" y="-138" type="curve" smooth="yes"/>
      <point x="-356" y="-148"/>
      <point x="-354" y="-156"/>
      <point x="-351" y="-166" type="curve"/>
      <point x="-276" y="-166" type="line"/>
      <point x="-278" y="-157"/>
      <point x="-279" y="-151"/>
      <point x="-279" y="-144" type="curve" smooth="yes"/>
      <point x="-279" y="-130"/>
      <point x="-272" y="-120"/>
      <point x="-257" y="-120" type="curve" smooth="yes"/>
      <point x="-244" y="-120"/>
      <point x="-238" y="-130"/>
      <point x="-238" y="-142" type="curve" smooth="yes"/>
      <point x="-238" y="-187"/>
      <point x="-343" y="-205"/>
      <point x="-343" y="-282" type="curve" smooth="yes"/>
      <point x="-343" y="-342"/>
      <point x="-289" y="-376"/>
      <point x="-205" y="-376" type="curve" smooth="yes"/>
      <point x="-101" y="-376"/>
      <point x="-30" y="-309"/>
      <point x="-30" y="-220" type="curve" smooth="yes"/>
      <point x="-30" y="-126"/>
      <point x="-96" y="-70"/>
      <point x="-96" y="-21" type="curve" smooth="yes"/>
      <point x="-96" y="-1"/>
      <point x="-82" y="8"/>
      <point x="-54" y="8" type="curve"/>
    </contour>
  </outline>
</glyph>
<glyph name="knYE" format="1">
  <advance width="1163"/>
  <outline>
    <contour>
      <point x="178" y="437"/>
      <point x="85" y="332"/>
      <point x="85" y="227" type="curve" smooth="yes"/>
      <point x="85" y="110"/>
      <point x="165" y="23"/>
      <point x="296" y="23" type="curve" smooth="yes"/>
      <point x="425" y="23"/>
      <point x="507" y="112"/>
      <point x="507" y="227" type="curve" smooth="yes"/>
      <point x="507" y="330"/>
      <point x="416" y="437"/>
      <point x="296" y="437" type="curve" smooth="yes"/>
    </contour>
    <contour>
      <point x="594" y="437" type="move"/>
      <point x="696" y="437" type="line" smooth="yes"/>
    </contour>
    <contour>
      <point x="507" y="160" type="move"/>
      <point x="558" y="63"/>
      <point x="615" y="27"/>
      <point x="681" y="27" type="curve"/>
      <point x="752" y="27"/>
      <point x="796" y="81"/>
      <point x="796" y="167" type="curve" smooth="yes"/>
      <point x="796" y="258"/>
      <point x="755" y="351"/>
      <point x="687" y="416" type="curve"/>
    </contour>
    <contour>
      <point x="797" y="160" type="move"/>
      <point x="848" y="63"/>
      <point x="905" y="27"/>
      <point x="971" y="27" type="curve"/>
      <point x="1042" y="27"/>
      <point x="1086" y="81"/>
      <point x="1086" y="167" type="curve" smooth="yes"/>
      <point x="1086" y="258"/>
      <point x="1045" y="351"/>
      <point x="977" y="416" type="curve"/>
    </contour>
    <component base="knmE" xOffset="903"/>
  </outline>
</glyph>
<glyph name="knYI" format="1">
  <advance width="1243"/>
  <outline>
    <contour>
      <point x="798" y="-10"/>
      <point x="869" y="120"/>
      <point x="869" y="289" type="curve" smooth="yes"/>
      <point x="869" y="594"/>
      <point x="743" y="876"/>
      <point x="523" y="876" type="curve" smooth="yes"/>
      <point x="424" y="876"/>
      <point x="361" y="811"/>
      <point x="361" y="735" type="curve" smooth="yes"/>
      <point x="361" y="650"/>
      <point x="424" y="604"/>
      <point x="502" y="604" type="curve" smooth="yes"/>
      <point x="527" y="604"/>
      <point x="552" y="607"/>
      <point x="578" y="618" type="curve"/>
      <point x="578" y="706" type="line"/>
      <point x="561" y="698"/>
      <point x="545" y="694"/>
      <point x="528" y="694" type="curve" smooth="yes"/>
      <point x="502" y="694"/>
      <point x="480" y="706"/>
      <point x="480" y="734" type="curve" smooth="yes"/>
      <point x="480" y="757"/>
      <point x="499" y="774"/>
      <point x="529" y="774" type="curve" smooth="yes"/>
      <point x="647" y="774"/>
      <point x="728" y="532"/>
      <point x="728" y="288" type="curve" smooth="yes"/>
      <point x="728" y="198"/>
      <point x="715" y="106"/>
      <point x="638" y="106" type="curve" smooth="yes"/>
      <point x="566" y="106"/>
      <point x="537" y="184"/>
      <point x="537" y="283" type="curve"/>
      <point x="473" y="224" type="line"/>
      <point x="473" y="86"/>
      <point x="527" y="-10"/>
      <point x="656" y="-10" type="curve" smooth="yes"/>
    </contour>
    <contour>
      <point x="455" y="-8"/>
      <point x="537" y="114"/>
      <point x="537" y="282" type="curve" smooth="yes"/>
      <point x="537" y="450"/>
      <point x="455" y="586"/>
      <point x="289" y="586" type="curve" smooth="yes"/>
      <point x="119" y="586"/>
      <point x="40" y="443"/>
      <point x="40" y="281" type="curve" smooth="yes"/>
      <point x="40" y="119"/>
      <point x="119" y="-8"/>
      <point x="289" y="-8" type="curve" smooth="yes"/>
    </contour>
    <contour>
      <point x="217" y="105"/>
      <point x="192" y="184"/>
      <point x="192" y="285" type="curve" smooth="yes"/>
      <point x="192" y="386"/>
      <point x="217" y="473"/>
      <point x="290" y="473" type="curve" smooth="yes"/>
      <point x="363" y="473"/>
      <point x="385" y="384"/>
      <point x="385" y="283" type="curve" smooth="yes"/>
      <point x="385" y="182"/>
      <point x="363" y="105"/>
      <point x="290" y="105" type="curve" smooth="yes"/>
    </contour>
    <contour>
      <point x="1120" y="-10"/>
      <point x="1203" y="109"/>
      <point x="1203" y="265" type="curve" smooth="yes"/>
      <point x="1203" y="433"/>
      <point x="1135" y="576"/>
      <point x="943" y="576" type="curve"/>
      <point x="943" y="461" type="line"/>
      <point x="1030" y="461"/>
      <point x="1062" y="372"/>
      <point x="1062" y="262" type="curve" smooth="yes"/>
      <point x="1062" y="181"/>
      <point x="1032" y="106"/>
      <point x="964" y="106" type="curve" smooth="yes"/>
      <point x="900" y="106"/>
      <point x="869" y="160"/>
      <point x="869" y="259" type="curve"/>
      <point x="804" y="224" type="line"/>
      <point x="804" y="80"/>
      <point x="852" y="-10"/>
      <point x="987" y="-10" type="curve" smooth="yes"/>
    </contour>
  </outline>
</glyph>
